<?xml version="1.0" standalone="no"?>
<!DOCTYPE svg PUBLIC "-//W3C//DTD SVG 20010904//EN"
 "http://www.w3.org/TR/2001/REC-SVG-20010904/DTD/svg10.dtd">
<svg version="1.0" xmlns="http://www.w3.org/2000/svg"
 width="770.000000pt" height="768.000000pt" viewBox="0 0 770.000000 768.000000"
 preserveAspectRatio="xMidYMid meet">

<g transform="translate(0.000000,768.000000) scale(0.100000,-0.100000)"
fill="#000000" stroke="none">
<path d="M1785 6573 c-104 -24 126 -33 613 -24 23 1 42 5 42 10 0 6 -71 10
-167 11 -93 1 -235 3 -318 4 -82 2 -159 1 -170 -1z"/>
<path d="M2481 6544 c0 -11 3 -14 6 -6 3 7 2 16 -1 19 -3 4 -6 -2 -5 -13z"/>
<path d="M6578 6533 c7 -3 16 -2 19 1 4 3 -2 6 -13 5 -11 0 -14 -3 -6 -6z"/>
<path d="M1001 6406 c-63 -69 -124 -142 -136 -163 -45 -76 -46 -99 -42 -828 4
-611 7 -715 26 -905 45 -453 53 -555 71 -877 11 -182 24 -352 30 -376 8 -31 9
-55 1 -83 -5 -21 -17 -97 -26 -169 -16 -132 -52 -384 -80 -555 -26 -154 -30
-514 -11 -815 9 -143 18 -291 20 -328 2 -44 9 -74 19 -84 8 -8 48 -23 88 -33
73 -18 161 -49 249 -89 54 -24 65 -22 230 41 111 41 119 43 225 42 83 0 140
-7 231 -28 156 -35 173 -33 199 21 25 53 41 54 50 3 12 -74 24 -80 196 -106
291 -44 448 -54 866 -54 399 0 621 9 883 35 80 8 217 19 305 25 129 9 163 14
176 28 9 9 26 50 39 90 12 40 27 75 32 78 4 3 22 -25 39 -63 51 -115 52 -117
89 -125 19 -5 278 -10 575 -12 297 -2 622 -9 723 -15 l183 -12 117 39 c64 22
164 54 222 72 160 49 248 83 276 105 32 25 38 68 58 431 39 666 39 644 6 904
-6 47 -13 107 -16 134 -6 57 -23 97 -24 56 0 -18 -3 -21 -9 -11 -7 11 -9 11
-14 0 -5 -12 -7 -11 -16 1 -5 8 -13 11 -17 7 -4 -4 -13 -2 -21 4 -10 9 -13 8
-13 -2 0 -11 -3 -11 -11 1 -8 11 -12 12 -16 2 -2 -6 -10 -9 -16 -5 -7 4 -8 0
-4 -11 4 -10 3 -15 -4 -11 -5 4 -7 15 -4 26 5 14 2 17 -9 13 -10 -4 -16 -26
-21 -72 -3 -37 -8 -88 -10 -113 l-5 -45 52 -34 c102 -64 130 -84 120 -88 -12
-4 -61 18 -117 53 -22 14 -43 25 -46 25 -10 0 -35 -248 -49 -485 -5 -93 -14
-230 -20 -302 l-10 -133 51 -62 c76 -94 79 -112 5 -34 -55 59 -68 68 -90 62
-17 -4 -28 -17 -36 -41 -16 -47 -34 -58 -175 -98 -179 -52 -187 -52 -237 -10
-24 19 -70 63 -103 98 -44 47 -71 66 -101 74 -28 8 -134 9 -325 5 l-284 -6
-36 -37 c-20 -20 -52 -49 -70 -66 l-34 -30 50 -2 c28 -2 149 -10 270 -19 121
-9 297 -22 390 -29 94 -7 162 -13 153 -14 -10 0 -18 -3 -18 -6 0 -2 24 -44 54
-93 71 -117 81 -136 67 -127 -15 9 -94 129 -117 178 -10 21 -27 39 -39 42
-114 23 -849 48 -867 29 -3 -3 -74 -7 -158 -9 -84 -2 -157 -8 -162 -13 -5 -5
-16 -40 -25 -76 -8 -37 -17 -65 -20 -63 -2 3 1 40 7 83 l12 78 -27 23 c-20 18
-38 23 -81 23 -30 0 -54 5 -54 10 0 6 3 10 8 10 4 0 34 25 67 56 33 31 76 70
96 89 20 18 39 37 42 42 8 13 -114 92 -151 99 -21 4 -51 -9 -132 -58 -58 -35
-120 -73 -138 -86 -34 -25 -44 -49 -14 -37 11 4 14 3 7 -4 -13 -13 -55 -3 -55
13 0 13 206 151 257 173 l33 13 -1 88 c0 48 -6 121 -12 162 -10 63 -15 75 -31
73 -10 0 -55 -4 -99 -8 -109 -10 -95 1 18 15 144 17 173 37 118 80 -23 18 -38
20 -107 19 -136 -4 -169 5 -41 11 l120 5 6 115 c4 63 7 118 8 123 0 4 56 8
124 9 67 0 107 3 90 5 -23 3 -33 10 -33 22 0 14 -7 16 -37 13 -21 -2 -44 -11
-50 -20 -12 -14 -13 -14 -13 1 0 9 -11 19 -25 23 l-25 6 5 197 c3 108 7 203
10 211 4 12 23 15 100 13 52 -1 95 1 95 5 0 4 43 6 97 4 86 -2 98 0 115 18 19
20 18 20 -44 22 -35 1 -129 2 -210 2 -87 1 -151 5 -157 11 -7 7 -5 28 8 65 19
55 32 181 51 471 8 133 5 474 -5 525 -4 18 -16 23 -77 33 -155 25 -199 33
-195 37 2 2 57 -3 123 -11 160 -20 163 -20 174 10 18 47 19 74 3 87 -9 7 -18
12 -20 11 -1 -2 -63 -2 -135 -2 -117 1 -126 3 -73 10 33 5 94 8 135 7 95 -2
96 0 104 181 4 75 9 154 11 176 10 95 8 384 -3 398 -7 8 -10 36 -7 73 3 32 8
106 11 164 2 58 7 116 10 128 l5 24 27 -26 c15 -14 37 -36 49 -48 l23 -21 87
88 c49 49 76 79 62 67 -19 -16 -28 -19 -36 -11 -17 17 -64 -39 -57 -66 4 -15
3 -16 -4 -6 -11 15 -52 6 -52 -11 0 -5 -21 14 -47 43 -27 30 -87 94 -135 143
-49 50 -88 95 -88 101 0 6 20 31 45 55 24 24 41 48 38 53 -3 6 -1 7 4 4 16
-10 36 20 29 40 -5 13 -4 15 4 7 15 -15 130 104 130 134 0 12 -4 22 -10 22
-14 0 -190 126 -190 137 0 16 220 -131 226 -152 8 -25 74 -99 75 -85 1 5 2 16
3 23 2 6 -13 28 -32 49 -31 33 -36 58 -11 58 5 0 25 10 44 23 l34 22 -71 72
c-40 40 -69 75 -66 79 4 3 35 -21 71 -54 78 -73 87 -78 160 -86 65 -8 69 -3
38 55 -11 20 -27 63 -37 95 -9 33 -18 61 -20 63 -2 2 -74 7 -161 11 l-158 7
-75 -29 c-134 -51 -138 -55 -151 -120 l-11 -57 -27 13 c-14 7 -55 16 -91 20
l-65 6 30 -26 c26 -23 29 -34 31 -85 1 -55 -8 -76 -19 -46 -4 8 -6 9 -6 0 -1
-6 6 -18 14 -27 18 -18 16 -73 -3 -81 -7 -2 -10 0 -7 5 4 7 -2 7 -17 1 -13 -6
-49 -17 -80 -26 -78 -21 -77 -40 3 -32 60 7 75 -5 21 -16 l-28 -6 4 -115 c3
-88 0 -130 -12 -178 -10 -35 -16 -85 -14 -111 l3 -49 60 41 c33 22 63 51 67
63 5 20 6 18 7 -8 1 -18 -6 -45 -14 -60 -10 -20 -15 -23 -15 -11 0 30 -30 20
-31 -10 0 -16 -3 -22 -6 -15 -2 6 -11 12 -19 12 -9 0 -13 -4 -10 -9 3 -5 -2
-8 -11 -7 -10 0 -19 -7 -21 -16 -2 -13 3 -18 20 -19 l23 -1 -23 -6 c-26 -8
-25 -4 -16 -90 6 -58 9 -64 38 -76 l31 -14 -29 1 c-31 2 -29 5 -37 -83 -2 -20
0 -40 3 -45 4 -7 -9 -9 -34 -7 -40 4 -41 4 -34 -23 l7 -27 -27 21 c-24 19 -40
21 -145 21 -89 0 -119 -3 -119 -12 0 -10 -3 -9 -9 1 -6 9 -30 14 -67 15 -33 0
-62 5 -65 9 -8 11 -48 12 -74 3 -11 -4 -5 2 13 14 26 18 30 25 21 37 -9 10
-24 13 -53 9 -40 -6 -41 -6 -11 7 32 13 34 23 22 107 -3 19 -6 41 -6 48 -1 7
-5 10 -11 7 -5 -3 -10 -1 -10 4 0 6 7 11 15 11 13 0 18 14 13 38 0 4 -11 6
-22 5 -16 -1 -14 1 7 9 l27 12 0 120 c0 67 3 138 6 159 5 24 3 37 -5 37 -7 0
-11 -22 -11 -60 0 -48 -3 -58 -14 -54 -8 3 -17 15 -19 27 -2 12 -3 -7 -1 -43
4 -60 3 -63 -9 -37 -15 30 -27 26 -27 -9 0 -13 -6 -27 -14 -31 -7 -4 -16 -15
-19 -23 -4 -9 -6 -5 -5 10 3 59 -5 263 -9 247 -3 -13 -11 -16 -26 -12 -20 6
-21 5 -4 -8 9 -8 16 -25 16 -38 -1 -18 -3 -19 -6 -6 -5 20 -34 19 -41 -1 -2
-8 2 -10 14 -5 10 4 15 2 11 -3 -3 -6 3 -17 14 -24 39 -29 17 -27 -51 3 -38
18 -70 34 -70 37 0 3 34 27 75 54 l75 48 0 51 c0 49 -16 131 -45 232 -8 28
-17 70 -21 95 -6 42 -5 44 9 24 9 -11 17 -36 19 -55 2 -29 7 -34 31 -37 16 -2
27 1 27 8 0 8 9 7 26 -4 40 -27 151 -32 210 -11 58 21 129 86 151 135 8 20 15
70 16 116 2 87 -6 104 -80 178 -28 28 -116 64 -159 65 -43 2 -125 -31 -172
-69 -42 -33 -53 -49 -72 -106 -17 -51 -21 -81 -17 -125 5 -59 -7 -81 -19 -35
-8 31 -36 38 -49 11 -11 -21 -211 -177 -254 -198 -35 -17 -38 -60 -12 -193 12
-59 21 -115 21 -125 0 -30 19 -32 125 -14 122 21 136 14 18 -9 -134 -26 -157
-34 -170 -55 -11 -17 -9 -23 17 -41 27 -19 35 -20 137 -10 133 12 150 13 137
1 -5 -5 -60 -13 -122 -18 -61 -5 -113 -12 -115 -14 -2 -2 0 -107 4 -234 5
-150 3 -238 -3 -255 -16 -40 -23 -284 -9 -319 10 -22 10 -38 0 -72 -7 -28 -13
-142 -15 -312 -2 -230 0 -266 12 -256 18 14 56 -8 81 -49 19 -31 53 -66 53
-56 0 4 11 -3 25 -16 31 -30 31 -41 -1 -70 -18 -18 -27 -21 -33 -12 -5 9 -14
4 -32 -15 -22 -25 -22 -26 -1 -9 46 39 33 4 -18 -46 l-53 -53 2 -75 c1 -43 7
-80 14 -86 7 -6 75 -17 152 -24 77 -6 142 -14 145 -17 3 -2 -66 -1 -152 3
l-157 7 -14 -35 c-8 -19 -12 -48 -9 -63 l5 -28 146 6 c163 7 144 -7 -26 -19
l-103 -7 -6 -35 c-4 -19 -3 -160 1 -313 4 -188 3 -279 -3 -279 -6 0 -22 4 -36
10 -20 7 -26 17 -26 38 0 48 -20 92 -49 107 -65 33 -488 59 -1141 70 -106 1
-187 7 -205 15 -60 23 -175 -12 -234 -72 -60 -62 -95 -204 -67 -268 20 -45 66
-110 78 -110 30 0 -10 -14 -104 -36 -56 -13 -140 -26 -185 -29 -80 -5 -83 -4
-87 17 -30 159 -38 199 -46 236 -6 23 -10 59 -10 79 0 64 -8 31 -30 -117 -18
-129 -20 -189 -20 -577 1 -299 4 -433 11 -433 6 0 28 -13 49 -30 45 -36 50
-30 50 63 1 34 7 76 15 92 l13 30 1 -39 c1 -52 7 -43 15 24 5 41 4 51 -5 40
-8 -12 -9 -10 -4 10 33 124 40 214 21 304 -20 99 -13 144 31 195 19 23 32 45
29 50 -4 5 -22 15 -42 21 -54 18 -35 21 37 6 57 -12 78 -11 184 6 65 10 132
25 147 33 l28 13 1 -121 c0 -67 3 -131 5 -142 3 -11 5 -99 4 -195 -1 -169 0
-175 22 -191 20 -16 22 -25 21 -122 -1 -98 0 -107 22 -127 21 -19 28 -21 54
-12 27 10 32 8 42 -10 10 -19 17 -20 127 -16 128 6 175 20 180 55 2 18 -1 20
-20 16 -13 -3 -29 -13 -35 -21 -12 -14 -13 -14 -13 1 0 26 -166 25 -187 0 -12
-16 -13 -15 -7 11 11 47 -15 51 -60 8 l-39 -37 26 36 c20 27 24 38 15 47 -6 6
-13 28 -15 49 -2 21 -9 41 -16 45 -9 6 -9 8 1 8 9 0 12 24 12 84 0 77 -2 86
-22 101 l-23 16 26 -6 c22 -5 27 -3 32 17 6 21 13 25 59 28 29 2 64 3 76 3 19
-1 23 3 18 21 l-5 21 17 -21 c13 -17 33 -23 86 -29 56 -6 67 -4 60 7 -4 7 2 5
14 -6 21 -18 22 -18 31 8 12 31 21 35 14 5 -5 -17 -2 -20 18 -17 13 2 23 9 22
15 -1 6 11 17 27 25 l30 15 -22 11 c-38 18 -91 20 -121 5 -26 -13 -32 -12 -61
5 -29 17 -52 20 -196 19 l-163 0 -5 24 c-2 13 -5 98 -6 189 l-1 165 35 3 c19
2 49 9 67 17 17 8 35 15 40 15 13 0 97 91 112 122 8 15 14 59 15 97 1 66 3 71
23 71 12 0 25 5 29 11 5 8 -3 10 -25 7 -20 -3 -31 0 -31 7 0 7 -9 24 -21 39
l-20 26 88 0 c257 -1 766 -23 951 -41 128 -12 148 -20 155 -56 3 -15 5 -29 4
-30 -1 -1 -51 -3 -111 -4 -67 -2 -114 -8 -121 -15 -10 -10 -28 -189 -25 -244
0 -8 -1 -37 -2 -65 -1 -27 -2 -86 -2 -130 l-1 -80 43 -3 c37 -3 42 -1 42 17 0
19 -10 24 -45 24 -6 0 -11 8 -11 18 0 11 3 19 7 19 6 0 14 98 25 295 3 61 10
103 17 107 7 5 41 5 76 2 48 -5 65 -3 72 7 6 10 9 11 9 2 0 -7 11 -13 25 -13
14 0 25 6 25 13 0 9 2 9 9 -1 5 -9 24 -13 54 -11 26 2 49 0 53 -4 17 -16 74
-6 102 18 35 29 52 18 28 -17 -17 -24 -22 -93 -7 -103 5 -3 12 7 14 22 4 25 4
25 6 -6 1 -29 -2 -33 -19 -28 -31 8 -43 -15 -25 -49 11 -21 15 -24 15 -11 0
12 6 17 18 15 26 -5 39 -70 23 -121 -7 -23 -14 -53 -15 -67 -1 -14 -5 -31 -9
-37 -5 -9 -3 -13 7 -13 12 0 16 -11 16 -49 0 -56 -6 -61 -82 -61 l-51 0 8 -47
c12 -72 9 -108 -30 -343 -8 -47 -17 -112 -21 -146 l-6 -61 116 -73 c64 -40
114 -75 112 -78 -4 -4 -143 68 -210 109 l-29 18 -59 -41 c-53 -37 -70 -58 -50
-58 13 -1 147 -128 141 -134 -4 -4 -30 13 -59 36 -100 82 -128 96 -192 97 -32
0 -58 -3 -58 -7 0 -5 11 -32 25 -60 37 -76 64 -151 57 -156 -4 -2 -32 3 -62
11 -30 8 -76 15 -102 15 -33 1 -48 6 -52 17 -2 9 -16 48 -30 86 -14 39 -26 78
-26 88 0 9 -8 17 -17 17 -37 0 -268 -34 -276 -40 -4 -4 9 -20 30 -35 43 -32
96 -83 73 -70 -53 31 -118 75 -129 89 -21 25 -161 19 -485 -19 -125 -15 -118
-13 -316 -123 -109 -62 -105 -61 -183 -32 -71 27 -87 43 -167 162 l-45 68 -6
-63 -6 -62 -1 68 c-2 81 -18 122 -62 161 -31 27 -78 56 -91 56 -4 0 -17 -28
-29 -62 -35 -95 -60 -151 -66 -146 -2 3 14 54 36 114 l40 109 0 240 c0 132 -3
317 -7 412 l-6 172 -67 29 c-72 33 -115 68 -63 53 15 -5 49 -18 75 -29 26 -12
50 -17 53 -12 3 5 17 78 30 162 14 84 32 191 41 238 11 61 12 98 6 132 -5 26
-8 59 -7 73 3 22 -4 29 -48 52 -29 14 -63 29 -77 34 -48 14 12 10 70 -6 30 -8
57 -15 60 -15 3 0 5 143 4 318 -1 308 -9 438 -39 667 -8 61 -17 146 -20 190
-13 163 -63 615 -70 623 -1 1 -31 -7 -66 -18 -72 -22 -79 -23 -79 -12 0 5 34
24 76 43 l76 34 39 84 c26 55 36 88 30 94 -7 7 -6 17 1 30 23 43 -18 440 -51
485 -30 43 -60 107 -113 240 -74 188 -56 179 36 -18 19 -41 53 -94 74 -118
l38 -43 19 21 c15 16 19 37 20 93 1 79 12 127 25 107 5 -8 10 -3 14 15 4 15 5
30 1 33 -3 3 -5 -3 -5 -13 0 -10 -2 -16 -5 -13 -9 9 6 59 15 53 5 -3 16 8 26
24 10 16 35 37 56 45 77 32 113 45 133 48 16 3 9 14 -44 68 -70 72 -142 175
-162 233 -7 20 -18 37 -24 37 -6 0 -62 -56 -124 -124z m2873 18 c43 -19 63
-37 76 -65 5 -13 20 -37 32 -52 19 -23 23 -41 23 -96 0 -89 -36 -151 -115
-198 -46 -28 -64 -33 -117 -33 -35 0 -63 3 -63 8 0 4 4 24 9 44 5 22 5 36 0
32 -5 -3 -9 -16 -9 -28 0 -48 -22 -48 -82 -1 -118 94 -120 233 -5 344 70 68
162 84 251 45z m645 -381 c-1 -10 -5 -29 -9 -43 -7 -21 -8 -19 -9 18 -1 23 4
42 9 42 6 0 10 -8 9 -17z m-102 -35 c-3 -7 -5 -2 -5 12 0 14 2 19 5 13 2 -7 2
-19 0 -25z m73 -117 c-16 -74 -20 -85 -25 -79 -3 3 0 29 6 59 6 30 12 63 14
74 4 29 6 32 12 16 3 -7 0 -39 -7 -70z m471 22 c13 -16 12 -17 -3 -4 -17 13
-22 21 -14 21 2 0 10 -8 17 -17z m-581 -83 c0 -5 -4 -10 -10 -10 -5 0 -10 5
-10 10 0 6 5 10 10 10 6 0 10 -4 10 -10z m23 -17 c-7 -2 -13 -12 -13 -20 0 -9
-3 -14 -6 -10 -10 10 4 37 18 36 10 0 10 -2 1 -6z m29 -333 c-8 -108 -9 -115
-11 -50 -1 53 -4 71 -11 60 -7 -11 -10 -6 -9 20 0 19 3 29 6 22 12 -29 23 5
25 76 1 42 3 59 5 37 2 -22 -1 -96 -5 -165z m-798 -183 c8 -6 8 -10 -1 -14
-15 -6 -17 -43 -3 -43 6 0 5 -8 -2 -20 -19 -30 -24 -12 -19 65 3 39 7 59 9 45
2 -14 9 -29 16 -33z m796 21 c0 -19 -2 -20 -11 -8 -8 12 -10 9 -6 -12 2 -15 0
-25 -4 -22 -16 9 -10 64 6 64 9 0 15 -9 15 -22z m-3537 -13 c48 -20 109 -56
103 -62 -5 -5 -156 63 -156 71 0 10 15 7 53 -9z m2709 -232 c-5 -59 -10 -63
-11 -10 -1 26 3 47 7 47 4 0 6 -17 4 -37z m-10 -218 l-9 -70 -2 81 c0 45 2 97
7 115 l7 34 3 -45 c1 -25 -1 -76 -6 -115z m82 50 c11 -8 16 -15 10 -15 -5 0
-18 7 -28 15 -11 8 -16 15 -10 15 5 0 18 -7 28 -15z m183 -11 c-3 -3 -12 -4
-19 -1 -8 3 -5 6 6 6 11 1 17 -2 13 -5z m-69 -11 c-10 -2 -28 -2 -40 0 -13 2
-5 4 17 4 22 1 32 -1 23 -4z m559 -9 c-3 -3 -12 -4 -19 -1 -8 3 -5 6 6 6 11 1
17 -2 13 -5z m60 -486 c-3 -7 -5 -2 -5 12 0 14 2 19 5 13 2 -7 2 -19 0 -25z
m-820 -150 c-3 -8 -6 -5 -6 6 -1 11 2 17 5 13 3 -3 4 -12 1 -19z m843 -3 c0
-2 -12 -21 -26 -42 -15 -21 -23 -29 -19 -18 4 11 10 30 12 43 3 12 12 22 19
22 8 0 14 -2 14 -5z m-43 -217 c-2 -18 -4 -6 -4 27 0 33 2 48 4 33 2 -15 2
-42 0 -60z m-325 -280 c49 -15 102 -62 94 -84 -3 -8 -2 -13 3 -9 13 7 48 -53
56 -97 9 -50 -17 -134 -56 -181 -50 -61 -149 -99 -214 -83 -24 6 -26 10 -20
39 13 66 13 66 67 69 58 3 58 4 72 106 l7 52 -31 0 c-27 0 -30 -3 -30 -32 0
-56 -10 -79 -33 -76 -26 4 -40 49 -31 101 l6 37 60 0 c59 0 59 0 56 28 -3 27
-4 27 -67 24 -36 -2 -75 -8 -89 -13 -24 -9 -24 -11 -20 -105 3 -77 8 -99 21
-109 17 -13 17 -25 0 -87 -7 -27 -23 -22 -78 23 -60 49 -84 96 -85 167 0 66
17 108 67 162 65 73 150 97 245 68z m-455 -105 c-3 -10 -5 -4 -5 12 0 17 2 24
5 18 2 -7 2 -21 0 -30z m13 -87 c-7 -7 -10 4 -9 30 1 39 1 39 10 9 5 -18 5
-33 -1 -39z m-5 -99 c-10 -25 -11 -37 -3 -45 8 -8 5 -9 -11 -5 -12 3 -20 8
-18 12 2 3 9 21 16 39 7 17 17 32 21 32 5 0 3 -15 -5 -33z m2 -229 c-3 -8 -6
-5 -6 6 -1 11 2 17 5 13 3 -3 4 -12 1 -19z m403 -104 c6 -16 11 -58 10 -94 -3
-102 0 -109 21 -44 15 46 26 64 46 73 21 10 28 9 34 -1 14 -22 10 -77 -10
-126 -10 -26 -26 -72 -35 -103 -19 -67 -48 -96 -104 -105 -41 -6 -44 -5 -87
40 -25 25 -48 58 -51 73 -4 16 -17 39 -29 53 -35 39 -46 67 -43 110 2 35 4 39
22 34 27 -8 56 -34 56 -49 0 -7 7 -18 15 -25 8 -7 15 -20 15 -30 0 -10 11 -25
25 -34 l25 -16 -1 37 c0 21 0 47 0 58 1 11 -1 52 -4 91 -4 62 -2 73 15 89 11
10 20 24 20 31 0 20 48 -28 60 -62z m-2223 -169 c65 -19 121 -68 103 -90 -11
-13 -10 -14 2 -10 9 4 22 -9 37 -36 20 -35 23 -51 18 -106 -6 -77 -37 -130
-105 -178 -37 -25 -54 -30 -118 -33 l-75 -4 6 28 c5 27 5 28 -6 7 -7 -13 -15
-23 -18 -23 -17 0 -108 86 -126 118 -25 47 -25 143 0 193 35 68 101 123 170
140 46 11 57 10 112 -6z m2330 -366 c-5 -73 -4 -79 14 -79 12 0 19 -7 19 -20
0 -18 -7 -20 -60 -20 -57 0 -60 1 -60 25 0 18 5 25 20 25 17 0 20 7 20 40 0
36 -2 40 -26 40 -20 0 -25 4 -20 16 3 9 6 20 6 26 0 6 9 8 20 5 13 -3 20 0 20
8 0 14 29 25 44 17 5 -3 6 -40 3 -83z m-227 31 c0 -18 -7 -20 -70 -20 -63 0
-70 2 -70 20 0 18 7 20 70 20 63 0 70 -2 70 -20z m0 -69 c0 -24 -19 -31 -86
-31 -46 0 -54 3 -54 18 0 29 8 32 77 32 55 0 63 -2 63 -19z m367 -188 c-2 -16
-4 -5 -4 22 0 28 2 40 4 28 2 -13 2 -35 0 -50z m133 -203 c-9 -5 -18 -3 -24 6
-6 7 -20 21 -31 29 -11 9 -1 7 24 -6 32 -15 40 -23 31 -29z m-153 -167 c-3
-10 -5 -4 -5 12 0 17 2 24 5 18 2 -7 2 -21 0 -30z m-2550 -35 c-2 -13 -4 -3
-4 22 0 25 2 35 4 23 2 -13 2 -33 0 -45z m0 -60 c-3 -8 -6 -5 -6 6 -1 11 2 17
5 13 3 -3 4 -12 1 -19z m2600 -200 c-3 -8 -6 -5 -6 6 -1 11 2 17 5 13 3 -3 4
-12 1 -19z m-670 -165 c-3 -10 -5 -2 -5 17 0 19 2 27 5 18 2 -10 2 -26 0 -35z
m940 -28 c0 -8 -5 -15 -11 -15 -6 0 -26 -9 -43 -20 l-33 -20 40 -112 c22 -62
39 -117 37 -123 -2 -5 -10 8 -17 30 -7 22 -29 75 -49 119 l-35 78 -71 -7 c-38
-3 -113 -13 -165 -21 -102 -15 -276 -29 -489 -39 -109 -6 -133 -5 -129 7 3 9
41 15 144 20 76 4 177 11 224 17 47 6 117 13 155 16 168 14 368 47 387 63 7 5
22 12 33 15 11 2 20 5 21 6 0 0 1 -6 1 -14z m-950 -62 c-3 -10 -5 -4 -5 12 0
17 2 24 5 18 2 -7 2 -21 0 -30z m2503 -14 c0 -14 -16 -11 -29 5 -10 12 -8 13
8 9 12 -3 21 -9 21 -14z m702 -53 c16 -29 -7 -11 -33 27 l-23 32 23 -20 c13
-11 27 -28 33 -39z m-4057 -174 c-9 -29 -18 -52 -20 -52 -9 0 8 95 19 102 17
11 17 5 1 -50z m-743 21 c-40 -2 -103 -2 -140 0 -37 2 -4 3 73 3 77 0 107 -2
67 -3z"/>
<path d="M3735 6323 c-54 -8 -58 -18 -52 -118 7 -109 17 -122 95 -117 62 5 68
12 78 102 6 57 5 63 -10 57 -10 -4 -24 -7 -31 -7 -10 0 -15 -16 -17 -52 -3
-49 -5 -53 -28 -53 -24 0 -25 3 -28 66 -3 74 1 79 81 79 33 0 37 3 37 25 0 23
-3 25 -47 24 -27 -1 -61 -4 -78 -6z"/>
<path d="M1705 2835 c-5 -2 -22 -6 -36 -9 -34 -7 -42 -38 -33 -129 5 -48 13
-76 26 -89 10 -10 16 -24 11 -31 -4 -7 0 -7 10 2 10 8 36 15 59 18 23 2 43 5
46 7 8 9 22 82 22 119 0 35 -2 38 -22 31 -30 -9 -28 -4 -35 -63 -5 -44 -9 -51
-28 -51 -28 0 -35 17 -35 85 0 51 1 53 31 59 17 3 44 6 60 6 24 0 29 4 29 25
0 23 -3 25 -47 24 -27 0 -52 -2 -58 -4z"/>
<path d="M1863 6476 c0 -9 13 -24 29 -34 28 -16 39 -44 16 -41 -30 4 -42 -1
-31 -12 8 -8 17 -8 33 1 18 10 24 9 31 -1 9 -15 -39 -37 -211 -95 -123 -42
-146 -53 -111 -54 23 0 153 38 221 66 47 18 117 33 160 34 l35 0 -64 60 c-36
33 -69 60 -74 60 -5 0 -15 7 -22 16 -11 15 -12 15 -12 0z"/>
<path d="M1967 6455 c10 -13 25 -27 33 -30 8 -4 2 8 -14 24 -36 37 -43 40 -19
6z"/>
<path d="M6390 6470 c-9 -6 -10 -10 -3 -10 6 0 15 5 18 10 8 12 4 12 -15 0z"/>
<path d="M3026 6419 c-38 -163 -38 -159 29 -159 30 0 55 2 55 5 0 3 -8 22 -19
43 -10 20 -24 55 -31 77 -16 52 -28 64 -34 34z"/>
<path d="M6323 6416 c-16 -13 -49 -26 -78 -30 -27 -4 -80 -16 -117 -26 -67
-18 -344 -72 -443 -86 -27 -4 -43 -9 -35 -11 33 -8 465 67 501 87 9 5 45 14
80 20 87 15 91 17 112 45 23 31 17 32 -20 1z"/>
<path d="M2030 6401 c0 -13 39 -35 48 -27 3 3 0 6 -6 6 -6 0 -18 7 -26 16 -9
8 -16 11 -16 5z"/>
<path d="M2133 6363 c9 -2 23 -2 30 0 6 3 -1 5 -18 5 -16 0 -22 -2 -12 -5z"/>
<path d="M2933 6355 c21 -57 31 -74 43 -79 12 -5 12 -2 0 22 -15 28 -50 74
-43 57z"/>
<path d="M1294 6331 c20 -22 26 -25 26 -13 0 4 -10 13 -22 21 -23 14 -23 14
-4 -8z"/>
<path d="M2188 6343 c7 -3 16 -2 19 1 4 3 -2 6 -13 5 -11 0 -14 -3 -6 -6z"/>
<path d="M2867 6306 c-5 -21 -6 -41 -3 -44 12 -11 17 7 14 44 l-3 39 -8 -39z"/>
<path d="M6165 6303 c-33 -8 -95 -23 -137 -34 -43 -10 -90 -19 -105 -19 -22 0
-25 -2 -13 -11 10 -7 -31 -8 -135 -3 -82 3 -153 8 -156 10 -3 2 -62 4 -131 5
-90 0 -134 -3 -161 -14 l-36 -15 19 -49 c10 -26 21 -69 25 -96 l7 -47 77 0
c42 0 107 3 144 7 l68 6 -58 60 c-66 68 -54 66 29 -5 31 -27 71 -53 87 -58 17
-5 83 -6 148 -4 l118 5 -33 -27 c-19 -15 -38 -38 -43 -52 -9 -22 -13 -24 -52
-18 -102 16 -191 25 -199 20 -6 -4 -99 -6 -208 -6 -149 1 -199 -2 -203 -11 -3
-9 16 -13 71 -15 46 -2 80 -8 84 -15 4 -7 8 -48 8 -91 0 -96 13 -90 29 14 7
41 17 78 24 82 18 11 286 10 326 -2 40 -11 50 -24 52 -65 1 -30 1 -30 13 7 6
20 16 36 21 35 6 -1 9 -5 8 -8 -15 -44 5 -189 26 -189 4 0 14 -11 21 -25 13
-25 90 -75 116 -75 23 0 26 -20 19 -141 l-7 -119 -69 0 c-44 0 -81 -6 -104
-17 -29 -14 -40 -15 -55 -5 -24 15 -94 16 -85 2 3 -5 -2 -10 -11 -10 -14 0 -8
-10 21 -37 l39 -37 7 24 c6 23 7 23 8 3 1 -22 12 -23 124 -9 9 1 24 11 32 22
12 14 14 15 9 2 -4 -13 3 -18 40 -23 26 -4 57 -5 70 -3 13 3 23 0 23 -6 -1
-36 4 -45 21 -40 12 4 13 3 4 -3 -8 -6 -15 -45 -18 -109 -6 -123 -10 -154 -19
-177 -4 -11 -3 -23 4 -30 6 -6 11 -15 11 -20 0 -4 -11 5 -24 20 -20 23 -27 26
-37 15 -11 -10 -11 -19 -1 -45 10 -29 10 -30 -3 -13 -8 11 -15 24 -15 28 0 13
-144 7 -152 -6 -5 -8 -8 -7 -8 2 0 6 -11 12 -25 12 -19 0 -23 -4 -19 -17 4
-13 0 -11 -12 5 -16 21 -22 22 -163 20 -104 -1 -129 -3 -86 -8 55 -5 58 -7 35
-17 -21 -9 -16 -11 35 -7 36 2 49 0 33 -4 -57 -15 -12 -29 97 -29 61 -1 152
-4 203 -8 80 -7 95 -5 112 10 11 10 26 14 38 10 14 -4 27 1 42 17 19 20 21 32
17 87 -2 35 1 94 8 130 7 36 12 106 11 155 -3 93 -14 116 -58 116 -16 0 -18 9
-17 73 0 39 4 94 7 122 7 47 9 50 42 56 57 10 93 28 133 67 58 56 79 110 76
195 -2 83 -7 95 -65 157 l-44 47 115 53 c63 29 115 57 115 61 0 4 17 9 38 11
54 5 -67 15 -345 29 -128 7 -233 15 -233 19 0 8 237 5 348 -5 39 -4 72 -4 72
0 0 3 -12 17 -26 30 -15 14 -21 25 -14 25 14 0 71 -46 64 -52 -2 -3 2 -5 9 -6
6 0 23 -4 37 -8 25 -7 25 -7 -5 26 -66 73 -76 79 -135 79 -30 -1 -82 -8 -115
-16z m100 -22 c-16 -4 -39 -12 -50 -18 -23 -13 -101 -25 -89 -14 5 4 29 13 54
20 25 8 50 15 55 16 6 2 21 3 35 3 22 0 22 -1 -5 -7z m-83 -223 c45 -13 103
-62 93 -78 -3 -5 -2 -10 4 -10 5 0 19 -16 32 -36 48 -79 14 -217 -69 -280 -46
-36 -117 -56 -168 -49 -37 5 -41 9 -37 28 4 19 3 20 -7 5 -6 -10 -14 -18 -18
-18 -16 0 -108 84 -124 113 -21 39 -24 144 -4 190 16 40 91 116 131 133 38 17
116 18 167 2z"/>
<path d="M6100 5955 c-8 -2 -32 -6 -53 -10 l-39 -6 4 -99 c4 -122 15 -138 93
-130 60 6 75 28 75 108 0 49 -1 52 -25 52 -20 0 -25 -5 -25 -24 0 -57 -12 -86
-36 -86 -18 0 -24 7 -29 33 -4 18 -5 49 -3 68 3 33 4 34 63 43 33 5 62 10 63
12 2 1 1 12 -3 23 -6 20 -37 26 -85 16z"/>
<path d="M6041 5674 c0 -11 3 -14 6 -6 3 7 2 16 -1 19 -3 4 -6 -2 -5 -13z"/>
<path d="M1330 6296 c0 -2 8 -10 18 -17 15 -13 16 -12 3 4 -13 16 -21 21 -21
13z"/>
<path d="M2130 6286 c47 -8 96 -18 110 -24 14 -5 50 -12 80 -16 45 -5 39 -2
-40 19 -52 13 -126 26 -165 29 l-70 5 85 -13z"/>
<path d="M2388 6293 c6 -2 18 -2 25 0 6 3 1 5 -13 5 -14 0 -19 -2 -12 -5z"/>
<path d="M2438 6283 c7 -3 16 -2 19 1 4 3 -2 6 -13 5 -11 0 -14 -3 -6 -6z"/>
<path d="M1858 6253 c7 -3 16 -2 19 1 4 3 -2 6 -13 5 -11 0 -14 -3 -6 -6z"/>
<path d="M3186 6253 c-17 -3 -46 -23 -75 -53 -120 -125 -151 -159 -151 -168 0
-6 38 -30 85 -54 l84 -43 37 20 c21 11 72 45 115 75 42 30 87 62 99 70 51 34
68 67 29 55 -15 -5 -19 -4 -14 5 4 6 16 10 26 7 10 -3 21 -2 23 2 3 4 -43 22
-100 40 -58 19 -107 38 -110 43 -3 4 -8 7 -12 7 -4 -1 -20 -4 -36 -6z"/>
<path d="M1547 6227 c2 -4 21 -18 41 -31 21 -13 62 -47 92 -76 102 -96 89 -94
445 -65 l307 26 67 69 67 69 -81 6 c-124 9 -944 11 -938 2z m93 -17 c8 -5 12
-11 9 -14 -3 -3 -14 1 -25 9 -21 16 -8 20 16 5z"/>
<path d="M6919 6083 c-30 -60 -69 -122 -88 -140 -32 -29 -34 -34 -23 -57 6
-14 16 -26 20 -26 5 0 7 -12 4 -27 l-6 -28 -7 30 c-6 29 -7 28 -8 -9 0 -22 -5
-53 -11 -70 -50 -156 -55 -202 -55 -489 0 -222 3 -279 13 -286 8 -5 15 -24 17
-42 2 -19 9 -91 16 -160 l12 -126 44 -11 c24 -7 56 -12 71 -12 21 0 24 -2 12
-10 -8 -5 -42 -10 -75 -10 l-61 0 -17 -352 c-10 -203 -23 -382 -32 -422 -8
-37 -20 -146 -26 -241 l-12 -172 58 -56 c71 -68 66 -87 -5 -27 -57 47 -53 48
-90 -22 -21 -39 -25 -74 -12 -96 9 -14 65 -32 100 -32 33 0 90 47 108 89 38
89 43 137 84 936 6 110 15 269 20 354 7 109 11 1621 4 1621 0 0 -25 -48 -55
-107z m-107 -368 c3 -14 1 -28 -3 -31 -5 -3 -9 9 -9 25 0 38 6 40 12 6z"/>
<path d="M6665 6120 c10 -11 20 -20 23 -20 3 0 -3 9 -13 20 -10 11 -20 20 -23
20 -3 0 3 -9 13 -20z"/>
<path d="M5513 6003 c9 -2 23 -2 30 0 6 3 -1 5 -18 5 -16 0 -22 -2 -12 -5z"/>
<path d="M5793 6003 c9 -2 23 -2 30 0 6 3 -1 5 -18 5 -16 0 -22 -2 -12 -5z"/>
<path d="M4058 5973 c-9 -10 -19 -29 -23 -43 -26 -85 -95 -180 -130 -180 -22
0 -45 36 -43 71 0 18 -7 50 -15 69 l-16 35 6 -38 c3 -22 0 -56 -7 -77 -16 -50
-3 -84 49 -125 22 -17 35 -34 31 -40 -8 -10 -41 -114 -37 -116 16 -7 67 -8 67
0 0 5 -4 11 -9 13 -4 2 -11 13 -15 25 -6 18 -1 25 23 38 17 8 31 19 31 23 0 7
49 23 113 37 26 5 27 4 27 -34 0 -36 2 -39 34 -45 45 -9 86 2 79 20 -3 8 -16
12 -34 10 -37 -4 -42 5 -30 49 9 33 7 37 -25 63 -27 21 -34 34 -34 61 0 30 2
33 25 29 14 -3 28 -1 31 3 3 5 -2 10 -10 10 -33 3 -37 4 -46 19 -5 8 -10 21
-10 29 0 11 5 10 20 -4 20 -18 21 -18 26 2 4 13 11 20 20 16 22 -8 27 24 7 51
-15 22 -60 46 -83 46 -4 0 -14 -8 -22 -17z"/>
<path d="M1981 5943 c5 -15 21 -38 34 -51 14 -14 25 -31 25 -38 0 -8 4 -14 9
-14 11 0 3 39 -13 60 -10 13 -9 13 7 1 9 -7 17 -21 18 -30 0 -11 2 -12 6 -3 5
13 -73 102 -89 102 -4 0 -3 -12 3 -27z"/>
<path d="M1845 5852 c-117 -114 -215 -217 -215 -226 0 -3 7 -6 15 -6 8 0 35
-20 61 -44 39 -38 47 -52 54 -98 7 -46 8 -48 9 -15 0 20 6 37 11 37 6 0 10 -6
10 -14 0 -7 9 -16 20 -19 19 -5 20 -14 20 -290 0 -156 -3 -332 -7 -391 l-6
-107 -23 22 c-13 13 -27 19 -31 16 -3 -4 -1 -7 5 -7 18 0 52 -65 52 -100 0
-23 -9 -41 -33 -65 -27 -27 -42 -33 -99 -39 -37 -4 -72 -5 -77 -2 -5 3 -7 -3
-4 -14 8 -29 13 -30 108 -36 79 -5 86 -4 109 19 36 36 39 102 32 557 l-7 405
26 -37 c14 -21 32 -38 40 -38 7 0 22 -11 33 -25 11 -14 24 -25 29 -25 5 0 27
18 48 41 l40 40 5 -103 c3 -57 7 -220 8 -363 l3 -259 -25 27 c-14 15 -31 27
-38 26 -7 0 -4 -5 8 -10 37 -18 52 -58 52 -141 1 -76 1 -78 -23 -78 -31 0 -32
16 -2 49 l22 25 -29 -22 c-64 -49 -151 -15 -166 64 -7 34 -8 35 -9 9 0 -33 37
-99 57 -101 6 -1 26 -2 43 -2 55 -3 28 -27 -31 -28 -62 -1 -78 -20 -27 -29 47
-9 176 0 189 13 7 7 17 6 32 -3 27 -18 150 -22 189 -6 15 6 27 12 27 13 0 2 4
29 9 60 6 31 12 261 16 510 7 547 7 553 44 571 34 17 50 3 52 -45 2 -33 2 -33
6 -4 4 27 5 28 16 10 41 -68 55 -85 80 -95 l27 -11 0 -197 c0 -108 -3 -287 -7
-399 l-6 -203 -27 26 c-14 14 -33 25 -41 25 -7 0 -3 -6 10 -13 33 -16 63 -75
56 -107 -4 -14 -18 -38 -33 -53 -22 -23 -34 -28 -64 -25 -21 2 -38 0 -38 -4 0
-5 12 -8 26 -8 16 0 24 -5 21 -12 -3 -9 -23 -13 -61 -12 -31 1 -56 -3 -56 -8
0 -18 58 -29 139 -26 67 3 86 8 97 23 14 18 14 18 28 0 24 -33 214 -26 217 8
1 7 0 27 -1 46 l-2 34 32 -26 c17 -15 39 -27 48 -26 14 0 13 2 -3 9 -11 4 -30
19 -43 32 -28 31 -29 75 -20 583 l6 350 34 40 c20 22 38 50 42 63 8 24 22 29
29 10 3 -8 6 -6 6 5 1 27 41 22 42 -5 l0 -23 10 23 c6 17 15 22 31 20 l23 -3
0 -295 c0 -162 -4 -375 -9 -474 l-8 -178 -24 26 c-27 29 -60 40 -95 33 -16 -3
-11 -5 14 -6 30 -1 46 -9 68 -32 16 -17 32 -42 35 -54 9 -36 -24 -95 -62 -111
-34 -14 -51 -40 -31 -48 9 -3 9 -5 0 -5 -6 -1 -15 4 -18 9 -8 13 -95 13 -95 0
0 -15 42 -22 130 -24 62 -1 83 3 96 16 14 14 19 60 30 295 18 380 21 821 5
850 -17 33 -48 46 -105 44 l-51 -1 0 59 c0 46 -6 66 -27 97 -46 68 -75 91
-142 114 l-65 21 -76 -20 c-41 -12 -77 -21 -80 -21 -11 0 -4 29 8 34 6 3 -1 4
-18 3 -34 -2 -48 -34 -21 -49 14 -8 12 -14 -15 -43 -35 -37 -69 -122 -69 -173
0 -29 -3 -34 -19 -29 -11 3 -29 -1 -40 -9 -14 -11 -26 -12 -46 -4 -27 10 -45
6 -45 -9 0 -5 9 -11 21 -14 21 -6 21 -8 15 -219 -3 -117 -9 -296 -11 -398 -3
-102 -8 -218 -12 -258 l-5 -73 -22 20 c-22 20 -68 41 -89 40 -7 0 8 -8 32 -17
31 -12 49 -27 63 -52 21 -40 18 -70 -14 -115 l-21 -30 21 19 c19 16 22 17 22
3 0 -31 -13 -47 -37 -47 -16 0 -23 5 -20 13 3 8 -9 12 -40 12 -38 0 -49 5 -74
33 -16 18 -29 28 -29 22 0 -13 40 -55 61 -63 12 -5 12 -7 0 -15 -9 -6 -22 -5
-40 4 l-26 14 0 454 c0 427 -1 456 -18 473 -18 17 -19 17 -43 -12 -13 -16 -22
-36 -19 -44 4 -9 0 -11 -11 -7 -8 3 -23 2 -33 -4 -18 -9 -34 7 -280 266 -3 2
17 26 43 53 27 27 45 54 42 60 -4 7 -1 9 8 5 9 -4 18 1 22 10 3 9 35 44 71 79
52 51 64 68 61 89 -3 25 -10 19 -113 -80z m980 49 c49 -22 79 -55 71 -76 -3
-9 -2 -14 3 -10 17 10 54 -57 59 -106 14 -143 -128 -279 -264 -253 -31 6 -32
8 -28 42 l4 37 -10 -32 c-6 -18 -15 -33 -19 -33 -5 0 -34 20 -64 45 -79 64
-104 140 -76 237 12 46 91 131 139 152 48 21 136 20 185 -3z m9 -608 c4 -93 7
-276 7 -408 0 -346 0 -354 -12 -377 -11 -20 -18 -22 -38 -9 -11 7 -9 14 15 36
l29 27 -29 -21 c-29 -21 -103 -30 -91 -11 3 5 0 7 -8 4 -8 -3 -25 8 -41 26
-14 17 -26 26 -26 19 0 -17 40 -59 57 -59 7 0 13 -6 13 -14 0 -17 -27 -29 -35
-15 -4 5 -10 7 -15 4 -20 -13 -32 27 -27 88 4 40 3 55 -3 42 -8 -19 -15 507
-10 797 l0 26 79 -5 c48 -4 85 -1 97 5 10 6 22 12 25 12 3 0 9 -75 13 -167z
m236 -768 c0 -31 -3 -35 -25 -35 -14 0 -25 4 -25 10 0 7 38 55 48 59 1 1 2
-15 2 -34z m-1273 -23 c-9 -8 -23 -12 -32 -8 -14 5 -12 10 12 30 23 20 29 22
31 9 2 -8 -3 -22 -11 -31z m779 -8 c-3 -8 -15 -14 -26 -14 -28 0 -26 34 3 55
21 15 22 14 25 -5 2 -12 1 -28 -2 -36z m189 6 c-3 -5 -12 -7 -20 -3 -21 7 -19
13 6 13 11 0 18 -4 14 -10z m-522 -7 c-7 -2 -19 -2 -25 0 -7 3 -2 5 12 5 14 0
19 -2 13 -5z"/>
<path d="M2680 5803 c-48 -9 -53 -20 -47 -117 6 -110 19 -126 94 -119 26 3 52
9 56 13 10 9 32 138 25 146 -3 3 -17 2 -32 -2 -23 -5 -26 -11 -26 -48 0 -50
-11 -69 -36 -64 -16 3 -20 14 -22 67 -4 75 2 81 71 81 43 0 47 2 47 25 0 24
-3 25 -52 24 -29 -1 -64 -4 -78 -6z"/>
<path d="M2728 4723 c12 -2 30 -2 40 0 9 3 -1 5 -23 4 -22 0 -30 -2 -17 -4z"/>
<path d="M2685 4710 c-4 -6 -10 -8 -14 -5 -7 4 -36 -45 -29 -50 2 -1 16 13 31
32 16 18 27 33 24 33 -3 0 -9 -5 -12 -10z"/>
<path d="M2804 4701 c21 -23 26 -26 26 -11 0 5 -10 15 -22 21 -23 12 -23 12
-4 -10z"/>
<path d="M2763 4672 c-6 -4 -11 -31 -11 -60 -1 -52 0 -53 26 -50 24 3 27 7 28
46 1 39 -9 57 -18 30 -2 -6 -10 -8 -16 -4 -17 10 -5 26 19 26 10 0 19 5 19 10
0 12 -30 13 -47 2z m24 -88 c-9 -9 -28 6 -21 18 4 6 10 6 17 -1 6 -6 8 -13 4
-17z"/>
<path d="M2680 4639 c-11 -8 -12 -12 -2 -16 14 -6 16 -43 2 -43 -5 0 -10 -4
-10 -10 0 -5 15 -10 33 -10 29 1 30 2 14 14 -13 10 -15 21 -11 45 7 32 -1 38
-26 20z"/>
<path d="M3591 5898 c0 -28 2 -30 9 -13 12 28 12 45 0 45 -5 0 -10 -15 -9 -32z"/>
<path d="M4991 5866 c-8 -10 -8 -16 1 -24 10 -8 13 -4 13 14 0 28 1 28 -14 10z"/>
<path d="M2082 5824 c9 -9 21 -15 27 -13 6 2 -2 10 -17 17 -25 11 -25 11 -10
-4z"/>
<path d="M3612 5810 c0 -19 2 -27 5 -17 2 9 2 25 0 35 -3 9 -5 1 -5 -18z"/>
<path d="M1910 5765 c0 -12 13 -15 60 -15 47 0 60 3 60 15 0 12 -13 15 -60 15
-47 0 -60 -3 -60 -15z"/>
<path d="M3610 5749 c0 -13 5 -31 10 -39 7 -11 8 -5 4 20 -8 43 -14 51 -14 19z"/>
<path d="M5156 5737 c3 -10 9 -15 12 -12 3 3 0 11 -7 18 -10 9 -11 8 -5 -6z"/>
<path d="M5493 5715 c0 -22 2 -30 4 -17 2 12 2 30 0 40 -3 9 -5 -1 -4 -23z"/>
<path d="M4884 5725 c-4 -9 -14 -14 -23 -13 -10 2 -17 -5 -19 -19 -3 -18 2
-23 17 -23 18 0 21 -6 21 -45 0 -33 -4 -45 -14 -45 -21 0 -31 -21 -15 -31 8
-5 35 -9 62 -9 40 0 47 3 47 20 0 11 -7 20 -15 20 -12 0 -15 16 -15 80 0 74
-2 80 -20 80 -11 0 -23 -7 -26 -15z"/>
<path d="M5125 5720 c10 -11 20 -20 23 -20 3 0 -3 9 -13 20 -10 11 -20 20 -23
20 -3 0 3 -9 13 -20z"/>
<path d="M2210 5705 c13 -14 26 -25 28 -25 3 0 -5 11 -18 25 -13 14 -26 25
-28 25 -3 0 5 -11 18 -25z"/>
<path d="M2241 5714 c0 -11 3 -14 6 -6 3 7 2 16 -1 19 -3 4 -6 -2 -5 -13z"/>
<path d="M1910 5706 c0 -20 34 -29 80 -21 25 4 40 12 40 21 0 10 -15 14 -60
14 -45 0 -60 -3 -60 -14z"/>
<path d="M3732 5650 c0 -19 2 -27 5 -17 2 9 2 25 0 35 -3 9 -5 1 -5 -18z"/>
<path d="M5482 5650 c0 -14 2 -19 5 -12 2 6 2 18 0 25 -3 6 -5 1 -5 -13z"/>
<path d="M2052 5627 c-15 -15 -22 -36 -22 -61 0 -36 1 -37 33 -34 26 2 33 8
35 29 2 18 -3 29 -14 33 -22 8 -31 -1 -16 -16 16 -16 15 -28 -3 -28 -20 0 -19
39 1 61 25 28 12 43 -14 16z"/>
<path d="M1542 5583 c1 -41 2 -43 5 -13 3 19 9 41 15 47 8 10 6 13 -6 13 -13
0 -16 -10 -14 -47z"/>
<path d="M1871 5606 c-9 -10 -8 -15 4 -20 18 -6 20 -33 3 -38 -18 -6 1 -28 24
-28 14 0 18 5 14 16 -3 9 -6 31 -6 50 0 36 -18 46 -39 20z"/>
<path d="M5118 5585 c-16 -18 -28 -36 -28 -40 0 -3 12 7 26 24 28 34 50 41 39
14 -5 -15 -4 -16 6 -5 11 10 10 15 -1 26 -13 11 -19 9 -42 -19z"/>
<path d="M2219 5593 c-41 -50 -44 -58 -12 -33 18 14 32 31 32 38 1 16 -3 15
-20 -5z"/>
<path d="M2284 5598 c-5 -7 -7 -53 -4 -103 l5 -90 8 85 c5 47 11 93 13 103 6
20 -9 23 -22 5z"/>
<path d="M5472 5590 c0 -14 2 -19 5 -12 2 6 2 18 0 25 -3 6 -5 1 -5 -13z"/>
<path d="M1662 5570 c0 -19 2 -27 5 -17 2 9 2 25 0 35 -3 9 -5 1 -5 -18z"/>
<path d="M1945 5580 c-4 -6 8 -10 29 -10 20 0 36 5 36 10 0 6 -13 10 -29 10
-17 0 -33 -4 -36 -10z"/>
<path d="M5135 5550 c-4 -6 -12 -7 -18 -4 -7 4 -9 4 -5 -1 4 -4 2 -15 -4 -24
-7 -9 0 -5 15 8 15 14 27 26 27 28 0 7 -9 3 -15 -7z"/>
<path d="M5172 5520 c0 -19 2 -27 5 -17 2 9 2 25 0 35 -3 9 -5 1 -5 -18z"/>
<path d="M5019 5483 c-13 -16 -12 -17 4 -4 9 7 17 15 17 17 0 8 -8 3 -21 -13z"/>
<path d="M1175 5432 c22 -21 42 -37 44 -35 7 5 -62 73 -73 73 -6 0 7 -17 29
-38z"/>
<path d="M5163 5380 c0 -25 2 -35 4 -22 2 12 2 32 0 45 -2 12 -4 2 -4 -23z"/>
<path d="M1570 5395 c0 -8 4 -15 10 -15 5 0 7 7 4 15 -4 8 -8 15 -10 15 -2 0
-4 -7 -4 -15z"/>
<path d="M6703 5375 c0 -22 2 -30 4 -17 2 12 2 30 0 40 -3 9 -5 -1 -4 -23z"/>
<path d="M5310 5338 c0 -5 -4 -7 -9 -4 -5 3 -12 -1 -15 -10 -4 -11 -14 -15
-30 -12 l-25 5 17 -45 c20 -52 38 -53 36 -2 -2 33 -1 33 8 10 10 -25 11 -25
142 -25 72 0 169 -5 215 -9 l85 -9 -23 31 c-12 18 -30 36 -40 42 -44 23 -361
48 -361 28z"/>
<path d="M5078 5333 c7 -3 16 -2 19 1 4 3 -2 6 -13 5 -11 0 -14 -3 -6 -6z"/>
<path d="M4064 5316 c-3 -8 -11 -13 -19 -10 -7 3 -15 -4 -18 -15 -4 -16 0 -21
14 -21 29 0 28 -75 -1 -83 -11 -3 -20 -10 -20 -15 0 -11 85 -26 100 -17 15 10
12 35 -5 35 -12 0 -15 14 -15 70 0 56 -3 70 -15 70 -9 0 -18 -6 -21 -14z"/>
<path d="M3860 5285 c0 -12 13 -15 60 -15 47 0 60 3 60 15 0 12 -13 15 -60 15
-47 0 -60 -3 -60 -15z"/>
<path d="M3860 5226 c0 -9 16 -15 47 -19 54 -6 73 -1 73 19 0 10 -15 14 -60
14 -44 0 -60 -4 -60 -14z"/>
<path d="M5336 5195 c7 -17 -40 -95 -56 -95 -6 0 0 10 13 23 l22 22 -34 3
c-20 2 -37 -2 -42 -10 -7 -10 -11 -7 -15 10 -8 27 -24 29 -24 3 0 -11 -4 -23
-10 -26 -5 -3 -10 1 -10 10 0 9 -5 13 -10 10 -7 -4 -7 -12 0 -25 5 -10 10 -42
10 -70 l0 -50 166 2 166 3 2 50 c2 28 6 61 10 75 7 20 6 23 -5 13 -18 -18 -31
-16 -28 5 3 37 -2 35 -21 -5 -15 -34 -24 -43 -44 -43 -16 0 -29 8 -36 23 -10
20 -10 20 3 5 17 -22 40 -23 57 -3 14 17 5 23 -50 27 -30 3 -35 7 -38 31 -2
15 -9 27 -17 27 -9 0 -12 -6 -9 -15z m169 -95 c3 -5 1 -10 -4 -10 -6 0 -11 5
-11 10 0 6 2 10 4 10 3 0 8 -4 11 -10z"/>
<path d="M5867 5163 c-16 -16 -5 -32 26 -35 35 -3 35 1 4 -91 -17 -50 -18 -60
-6 -68 22 -14 28 -11 34 19 3 15 15 50 26 77 25 67 25 91 -3 99 -31 8 -73 8
-81 -1z"/>
<path d="M5658 5133 c-10 -2 -18 -11 -18 -19 0 -12 12 -14 58 -12 43 2 57 7
57 18 0 15 -60 24 -97 13z"/>
<path d="M1052 5073 l-32 -63 20 -177 c11 -98 27 -230 35 -293 7 -63 17 -151
20 -195 6 -84 32 -331 44 -425 6 -43 9 -16 14 125 7 177 4 305 -8 325 -22 36
-53 381 -58 645 l-2 120 -33 -62z"/>
<path d="M6685 5070 c-18 -20 -18 -21 1 -35 10 -8 22 -15 27 -15 9 0 8 29 -2
53 -6 17 -8 17 -26 -3z"/>
<path d="M5640 5055 c0 -13 11 -15 57 -13 81 4 85 28 4 28 -48 0 -61 -3 -61
-15z"/>
<path d="M6445 5019 c-39 -4 -81 -12 -94 -17 -24 -8 -24 -9 11 -30 33 -20 37
-21 118 -7 47 7 123 17 170 21 l85 8 -55 17 c-59 19 -123 21 -235 8z"/>
<path d="M5010 4926 c0 -2 7 -6 15 -10 8 -3 15 -1 15 4 0 6 -7 10 -15 10 -8 0
-15 -2 -15 -4z"/>
<path d="M5413 4893 c9 -2 25 -2 35 0 9 3 1 5 -18 5 -19 0 -27 -2 -17 -5z"/>
<path d="M2152 4820 c0 -14 2 -19 5 -12 2 6 2 18 0 25 -3 6 -5 1 -5 -13z"/>
<path d="M5020 4787 c-41 -4 -78 -14 -82 -20 -4 -7 -8 -53 -8 -104 0 -86 -1
-92 -22 -95 -31 -4 -35 -28 -5 -28 31 0 36 -18 26 -99 -4 -37 -3 -75 2 -89 5
-14 8 -35 7 -46 -3 -20 2 -21 90 -24 89 -3 92 -2 92 19 0 20 -4 21 -42 15 -24
-4 -45 -11 -47 -17 -1 -6 -8 -3 -15 6 -6 9 -21 17 -33 18 -12 0 -20 3 -18 6 3
2 -1 11 -8 19 -9 13 -9 14 1 8 8 -5 12 1 13 21 0 15 3 98 5 183 2 85 6 161 9
168 3 8 32 12 99 12 82 0 95 2 99 18 4 16 5 16 6 0 1 -16 12 -18 92 -15 81 2
93 4 106 23 l14 22 -118 0 c-65 1 -134 2 -153 4 -19 2 -69 0 -110 -5z"/>
<path d="M5885 4770 c-86 -27 -144 -83 -171 -163 l-21 -62 -44 -2 c-24 -2 -55
-3 -69 -3 -34 -2 -109 8 -121 15 -5 4 -9 -3 -9 -14 0 -12 5 -21 10 -21 6 0 11
-42 11 -102 l2 -103 14 100 c8 55 17 103 21 107 4 4 14 1 24 -6 14 -11 15 -28
7 -176 -16 -302 -39 -645 -45 -669 l-5 -24 -26 24 -26 24 26 -36 c31 -41 34
-67 11 -111 -10 -20 -11 -28 -3 -23 9 6 10 0 5 -26 -3 -18 -10 -37 -16 -43
-14 -14 -40 1 -40 24 0 15 -7 20 -25 20 -34 0 -82 25 -95 51 -12 21 -11 69 10
404 9 147 9 249 1 318 -1 4 -9 7 -18 7 -17 0 -18 -20 -21 -248 -1 -136 -5
-275 -8 -310 -6 -56 -8 -61 -23 -50 -13 11 -13 9 2 -14 22 -36 22 -65 -3 -108
l-21 -35 21 24 21 25 -3 -50 c-3 -42 -6 -49 -25 -52 -19 -3 -23 1 -23 26 0 26
-2 28 -32 24 -56 -8 -118 41 -118 94 0 30 32 76 63 89 18 8 24 14 15 15 -9 0
-29 -11 -45 -24 l-29 -24 3 306 c3 331 -10 385 -21 87 -3 -99 -9 -224 -13
-278 -6 -96 -6 -97 -26 -80 -14 13 -12 7 7 -21 30 -45 31 -54 11 -103 -8 -19
-15 -46 -15 -58 0 -31 -25 -51 -44 -36 -10 8 -16 9 -21 1 -8 -13 -45 6 -45 24
0 8 11 12 33 10 25 -3 23 -1 -10 7 -50 12 -82 48 -84 93 -1 18 -3 24 -6 13 -8
-30 6 -66 32 -89 41 -36 26 -79 -18 -56 -10 5 -21 8 -23 5 -9 -8 8 -36 25 -42
27 -8 134 -9 159 -1 25 8 42 42 42 82 0 29 11 31 35 4 10 -11 36 -23 57 -27
32 -5 39 -9 36 -26 -3 -19 -9 -21 -58 -19 -51 2 -54 1 -36 -13 22 -17 161 -21
186 -5 9 5 19 5 26 -1 31 -26 167 -28 194 -4 17 16 35 82 31 120 -1 13 1 16 6
8 4 -6 9 62 10 150 2 188 31 759 39 780 6 16 41 26 62 19 7 -2 12 -16 13 -30
l1 -27 7 25 c10 37 40 39 39 3 0 -36 16 -78 42 -105 17 -19 20 -35 20 -122 0
-96 -12 -327 -26 -519 l-6 -88 -22 20 c-34 32 -38 25 -5 -10 50 -54 35 -131
-31 -159 -22 -9 -30 -19 -30 -38 0 -24 -1 -25 -56 -18 -42 5 -55 3 -52 -6 6
-18 43 -26 125 -27 63 -1 75 2 85 19 16 25 24 25 31 1 4 -15 17 -19 68 -23 35
-3 80 0 99 6 31 10 34 15 37 56 2 25 3 62 3 83 -1 43 13 75 44 99 11 10 16 18
9 18 -6 0 -21 -12 -32 -26 -12 -15 -21 -23 -21 -18 0 5 7 116 15 247 8 132 16
275 17 319 1 58 5 84 17 95 14 15 16 14 22 -8 5 -18 7 -19 8 -6 1 11 24 39 51
64 45 40 90 112 90 143 0 7 6 10 13 7 9 -3 11 -40 10 -148 -2 -133 -24 -499
-39 -647 l-6 -63 -22 20 c-31 29 -40 26 -11 -3 31 -31 41 -70 26 -102 -6 -14
-9 -30 -5 -35 12 -20 -6 -77 -26 -82 -29 -7 -27 39 3 64 l22 20 -28 -17 c-34
-20 -99 -14 -129 13 -21 18 -21 18 -9 -4 8 -16 24 -25 52 -29 30 -5 39 -11 37
-23 -3 -12 -15 -16 -51 -16 -25 0 -48 -4 -49 -9 -8 -27 182 -36 203 -10 12 15
15 45 44 399 25 315 37 610 27 662 -3 14 -17 33 -33 42 -20 11 -29 24 -29 41
0 88 -66 170 -165 206 -78 28 -73 28 -150 4z m172 -34 c52 -25 80 -57 67 -78
-4 -6 -3 -8 2 -5 5 3 20 -10 33 -29 52 -76 16 -221 -69 -283 -48 -35 -127 -56
-175 -47 -31 6 -34 9 -25 26 13 24 2 26 -15 3 -12 -15 -17 -13 -65 23 -67 50
-90 95 -90 175 0 72 17 112 68 164 76 77 173 95 269 51z m-175 -451 c26 -7 57
-11 68 -8 20 5 21 2 20 -273 -1 -286 -6 -368 -21 -358 -12 7 -11 1 5 -31 24
-46 -14 -125 -61 -125 -8 0 -11 -5 -8 -10 4 -6 4 -17 1 -25 -7 -20 -36 -7 -36
16 0 10 -5 19 -12 19 -7 0 -25 12 -41 28 -27 25 -29 25 -18 4 7 -13 23 -28 37
-34 39 -18 31 -40 -13 -36 l-38 3 2 355 c1 195 5 392 8 438 l7 83 26 -17 c14
-9 47 -22 74 -29z m-534 -785 c16 0 15 -37 0 -43 -11 -3 -26 2 -57 20 -2 2 -5
19 -6 39 l-3 36 27 -26 c15 -14 32 -26 39 -26z m368 -46 c-3 -8 -15 -14 -26
-14 -28 0 -27 43 3 63 21 14 22 13 25 -10 2 -14 1 -31 -2 -39z m222 -5 c-36
-23 -52 16 -17 42 24 18 24 18 27 -8 2 -14 -2 -30 -10 -34z m-528 26 c0 -8 -9
-15 -20 -15 -11 0 -20 7 -20 15 0 8 9 15 20 15 11 0 20 -7 20 -15z"/>
<path d="M5926 4639 c-27 -4 -53 -12 -58 -17 -6 -6 -8 -50 -7 -100 5 -113 18
-130 94 -122 60 6 75 28 75 108 0 49 -1 52 -25 52 -20 0 -25 -5 -25 -24 0 -57
-12 -86 -36 -86 -18 0 -24 7 -29 33 -4 18 -5 49 -3 68 3 33 4 34 63 42 33 5
62 10 63 12 2 2 1 13 -3 24 -7 23 -24 25 -109 10z"/>
<path d="M5891 4364 c0 -11 3 -14 6 -6 3 7 2 16 -1 19 -3 4 -6 -2 -5 -13z"/>
<path d="M5870 3681 c19 -5 44 -12 55 -16 15 -6 17 -5 9 4 -6 7 -31 14 -55 16
-42 4 -42 4 -9 -4z"/>
<path d="M5782 3651 c-15 -32 -12 -32 19 0 20 22 23 27 9 26 -9 0 -22 -12 -28
-26z"/>
<path d="M5810 3619 c-11 -8 -12 -12 -2 -16 14 -6 16 -43 2 -43 -5 0 -10 -4
-10 -10 0 -5 11 -10 25 -10 14 0 25 5 25 10 0 6 -4 10 -8 10 -4 0 -6 16 -4 35
4 36 -2 42 -28 24z"/>
<path d="M5877 3604 c-3 -20 0 -28 14 -31 25 -7 24 -20 -1 -33 -11 -6 -20 -15
-20 -21 0 -5 14 -3 30 6 35 18 40 50 10 60 -11 3 -20 11 -20 16 0 5 9 9 20 9
11 0 20 5 20 10 0 6 -11 10 -24 10 -18 0 -25 -7 -29 -26z"/>
<path d="M5412 4760 c-18 -29 -16 -110 3 -110 8 0 15 5 15 10 0 6 -4 10 -9 10
-6 0 -3 16 4 34 9 21 11 37 5 41 -5 3 -7 12 -3 20 8 21 0 18 -15 -5z"/>
<path d="M1591 4664 c-1 -68 2 -86 20 -108 29 -36 58 -51 73 -36 8 8 7 10 -4
6 -8 -3 -26 3 -40 13 -21 17 -26 33 -36 113 l-12 93 -1 -81z"/>
<path d="M1720 4730 c0 -6 7 -10 15 -10 8 0 15 2 15 4 0 2 -7 6 -15 10 -8 3
-15 1 -15 -4z"/>
<path d="M1688 4723 c7 -3 16 -2 19 1 4 3 -2 6 -13 5 -11 0 -14 -3 -6 -6z"/>
<path d="M1978 4723 c7 -3 16 -2 19 1 4 3 -2 6 -13 5 -11 0 -14 -3 -6 -6z"/>
<path d="M1630 4695 c-13 -14 -22 -27 -19 -29 2 -2 16 9 30 25 15 16 23 29 20
29 -4 0 -18 -11 -31 -25z"/>
<path d="M2162 4704 c-12 -8 -27 -25 -33 -37 -9 -18 -7 -18 13 4 12 15 32 32
43 38 11 6 15 11 10 11 -6 0 -21 -7 -33 -16z"/>
<path d="M2415 4696 c-16 -13 -28 -26 -25 -29 3 -3 20 8 38 24 39 35 29 39
-13 5z"/>
<path d="M2893 4696 c-15 -13 -26 -26 -23 -29 3 -3 18 8 33 24 34 35 29 38
-10 5z"/>
<path d="M1900 4688 c-11 -12 -20 -26 -20 -32 0 -5 1 -7 3 -5 1 2 13 16 26 32
29 32 21 37 -9 5z"/>
<path d="M5202 4675 c-10 -21 -18 -25 -57 -25 -33 0 -45 -4 -45 -15 0 -11 11
-15 41 -15 33 0 40 -3 35 -16 -3 -9 -6 -18 -6 -20 0 -2 -16 -4 -35 -4 -24 0
-35 -5 -35 -15 0 -9 10 -15 26 -15 23 0 25 -3 20 -25 -5 -18 -2 -25 8 -25 7 0
17 11 20 25 6 22 11 25 56 25 38 0 50 4 50 15 0 11 -11 15 -41 15 -33 0 -40 3
-35 16 3 9 6 18 6 20 0 2 16 4 35 4 24 0 35 5 35 15 0 9 -10 15 -26 15 -23 0
-25 3 -20 25 4 17 2 25 -7 25 -8 0 -19 -11 -25 -25z"/>
<path d="M1946 4635 c-7 -37 -2 -55 16 -55 6 0 17 -8 24 -17 12 -16 13 -16 14
-1 0 9 6 19 13 21 9 4 9 8 1 14 -7 4 -14 17 -17 28 -5 19 -5 19 -12 -2 -12
-36 -27 -27 -19 12 4 21 2 35 -4 35 -5 0 -13 -16 -16 -35z"/>
<path d="M2195 4658 c-2 -7 -3 -33 -2 -58 2 -41 5 -45 28 -48 29 -3 46 22 29
43 -6 7 -7 21 -3 31 6 16 4 17 -9 7 -8 -7 -18 -10 -21 -6 -13 12 -7 23 12 23
11 0 23 5 26 10 4 6 -7 10 -25 10 -17 0 -32 -6 -35 -12z m36 -81 c-13 -13 -26
-3 -16 12 3 6 11 8 17 5 6 -4 6 -10 -1 -17z"/>
<path d="M1690 4651 c0 -6 7 -11 15 -11 22 0 18 -18 -6 -25 -29 -10 -20 -39
14 -43 15 -2 27 1 27 7 0 6 -10 11 -22 12 l-23 0 23 11 c30 15 26 52 -5 56
-13 2 -23 -1 -23 -7z"/>
<path d="M2420 4649 c-11 -8 -12 -12 -2 -16 15 -6 16 -35 0 -51 -9 -9 -4 -12
22 -12 26 0 31 3 22 12 -7 7 -12 27 -12 45 0 35 -6 39 -30 22z"/>
<path d="M2500 4651 c0 -6 7 -11 15 -11 22 0 18 -18 -6 -25 -29 -10 -20 -39
14 -43 15 -2 27 1 27 7 0 6 -10 11 -22 12 l-23 0 23 11 c30 15 26 52 -5 56
-13 2 -23 -1 -23 -7z"/>
<path d="M2913 4646 c18 -14 18 -15 -2 -26 -30 -16 -26 -37 9 -42 35 -5 40 7
8 16 l-23 7 23 9 c31 13 25 44 -8 48 -24 2 -24 2 -7 -12z"/>
<path d="M2976 4628 c-4 -20 -2 -34 4 -36 6 -2 17 -10 25 -19 13 -12 17 -13
29 0 8 8 11 18 6 23 -4 5 -10 18 -13 29 -5 19 -5 19 -12 -2 -11 -34 -25 -28
-18 7 3 17 1 30 -4 30 -6 0 -13 -15 -17 -32z"/>
<path d="M2381 4634 c0 -11 3 -14 6 -6 3 7 2 16 -1 19 -3 4 -6 -2 -5 -13z"/>
<path d="M5390 4629 c0 -5 5 -7 10 -4 6 3 10 8 10 11 0 2 -4 4 -10 4 -5 0 -10
-5 -10 -11z"/>
<path d="M2381 4595 c-2 -23 36 -83 48 -76 8 5 5 13 -10 27 -12 10 -25 28 -30
39 -4 11 -8 15 -8 10z"/>
<path d="M5247 4472 c-22 -25 -23 -90 -1 -99 24 -9 48 10 52 39 2 19 -2 27
-17 31 -23 6 -27 -3 -10 -20 12 -12 4 -33 -12 -33 -15 0 -10 56 6 70 16 14 20
30 7 30 -5 0 -16 -8 -25 -18z"/>
<path d="M5074 4456 c-18 -14 -18 -15 -1 -21 18 -7 24 -45 7 -45 -5 0 -10 -4
-10 -10 0 -5 12 -10 26 -10 20 0 25 4 20 16 -3 9 -6 31 -6 50 0 37 -7 41 -36
20z"/>
<path d="M5403 4405 c0 -22 2 -30 4 -17 2 12 2 30 0 40 -3 9 -5 -1 -4 -23z"/>
<path d="M5145 4420 c3 -5 17 -10 30 -10 13 0 27 5 30 10 4 6 -8 10 -30 10
-22 0 -34 -4 -30 -10z"/>
<path d="M1655 4389 c-61 -21 -110 -44 -118 -56 -4 -7 -13 -13 -20 -13 -7 0
-22 -15 -33 -33 -65 -98 -71 -209 -16 -292 32 -48 98 -95 153 -108 l26 -7 8
-152 c5 -84 7 -222 6 -306 -2 -109 0 -157 9 -167 13 -16 31 -20 29 -7 -1 4 0
21 1 37 2 19 6 8 10 -30 4 -33 5 -88 3 -122 -5 -55 -3 -65 19 -91 19 -23 29
-27 41 -20 11 6 26 4 46 -7 39 -19 187 -20 261 -1 51 13 110 12 110 -3 0 -7
81 -5 135 5 37 7 38 8 15 15 -24 7 -24 7 6 8 16 1 34 5 40 10 5 6 29 11 54 14
25 2 -28 4 -118 5 -136 2 -164 0 -168 -13 -4 -8 -10 -15 -15 -15 -4 0 -6 7 -3
15 5 11 -1 15 -19 15 -14 0 -28 -7 -31 -17 -5 -13 -9 -14 -15 -5 -9 15 -181
30 -181 15 0 -5 -7 -18 -16 -29 -15 -18 -15 -18 -5 3 28 58 -4 80 -52 37 -17
-16 -24 -20 -14 -8 19 22 23 54 7 54 -5 0 -9 8 -8 18 4 45 -3 71 -19 75 -17 4
-17 5 0 6 15 1 17 12 17 84 0 51 -5 88 -12 95 -9 9 -8 12 5 12 14 0 21 14 19
40 0 3 26 3 59 2 35 -2 59 0 59 6 0 6 9 8 20 5 15 -4 20 0 20 13 1 18 1 18 11
2 10 -18 40 -25 127 -31 49 -3 55 -1 63 20 11 30 17 29 11 -2 -4 -21 -1 -24
14 -19 11 4 32 20 48 36 22 21 25 28 12 28 -10 0 -14 5 -11 10 9 14 -61 13
-102 -2 -27 -10 -38 -9 -68 5 -29 14 -65 17 -183 17 -101 0 -152 -4 -160 -12
-6 -6 -14 -9 -17 -7 -17 18 -33 290 -19 343 4 16 13 26 25 26 34 0 103 33 135
65 55 54 74 99 76 180 l3 74 55 4 55 3 -58 2 c-45 2 -59 6 -64 20 -3 9 -13 25
-21 35 -8 9 -13 18 -11 20 2 2 155 0 339 -4 505 -12 849 -35 874 -59 5 -5 11
-32 14 -59 2 -28 8 -51 13 -51 5 0 9 -6 9 -13 0 -7 14 -26 30 -42 23 -22 30
-25 30 -12 0 8 -4 18 -9 21 -5 3 -12 46 -16 96 -6 76 -11 93 -31 113 -45 45
-234 62 -899 78 -340 8 -472 14 -507 25 -26 8 -48 14 -50 13 -2 0 -16 -5 -33
-10z m143 -48 c42 -22 68 -54 57 -71 -4 -6 -1 -9 5 -8 7 2 24 -17 37 -42 76
-139 -65 -332 -232 -318 -40 3 -40 3 -38 43 l2 40 -10 -32 c-5 -18 -15 -33
-21 -33 -26 0 -117 83 -132 121 -22 56 -20 134 5 186 24 50 99 119 143 133 46
14 137 5 184 -19z m-101 -928 c-3 -10 -5 -4 -5 12 0 17 2 24 5 18 2 -7 2 -21
0 -30z"/>
<path d="M1678 4249 c-37 -4 -72 -11 -79 -15 -8 -5 -10 -35 -7 -102 5 -81 9
-98 26 -113 12 -9 19 -19 17 -23 -3 -3 1 -2 7 4 7 5 31 10 55 10 50 0 57 10
68 104 l8 58 -29 -4 c-27 -3 -29 -7 -34 -53 -5 -45 -7 -50 -30 -50 -24 0 -25
2 -25 65 l0 65 58 3 c56 3 58 4 55 29 -4 32 -5 32 -90 22z"/>
<path d="M5290 4316 c0 -8 51 -13 56 -5 3 5 -9 9 -25 9 -17 0 -31 -2 -31 -4z"/>
<path d="M5250 4299 c0 -5 5 -7 10 -4 6 3 10 8 10 11 0 2 -4 4 -10 4 -5 0 -10
-5 -10 -11z"/>
<path d="M5592 4290 c0 -14 2 -19 5 -12 2 6 2 18 0 25 -3 6 -5 1 -5 -13z"/>
<path d="M2997 3997 c-119 -120 -140 -155 -99 -173 13 -6 8 -9 -23 -14 l-40
-7 45 -2 c42 -1 49 -5 133 -92 l89 -91 -5 -54 c-4 -46 -2 -56 14 -65 14 -7 19
-22 20 -57 1 -28 6 -6 11 53 l9 100 45 45 c33 35 41 49 33 57 -9 9 -16 6 -30
-12 -11 -13 -19 -27 -19 -32 0 -5 -12 -10 -27 -11 -28 -2 -30 0 -215 195 l-21
22 102 110 c65 70 101 117 99 128 -2 12 -35 -15 -121 -100z"/>
<path d="M2678 4053 c7 -3 16 -2 19 1 4 3 -2 6 -13 5 -11 0 -14 -3 -6 -6z"/>
<path d="M2788 4043 c18 -2 45 -2 60 0 15 2 0 4 -33 4 -33 0 -45 -2 -27 -4z"/>
<path d="M4833 3975 c0 -33 2 -45 4 -27 2 18 2 45 0 60 -2 15 -4 0 -4 -33z"/>
<path d="M6322 3980 c0 -14 2 -19 5 -12 2 6 2 18 0 25 -3 6 -5 1 -5 -13z"/>
<path d="M3100 3936 c0 -8 14 -17 30 -21 33 -7 31 -21 -6 -35 -28 -11 -23 -40
6 -33 20 5 41 -18 22 -25 -6 -2 -22 -12 -34 -22 -17 -14 -20 -21 -12 -30 9 -9
22 -5 53 15 43 29 53 57 25 73 -11 6 -13 11 -5 16 22 14 13 56 -15 66 -36 14
-64 12 -64 -4z"/>
<path d="M3325 3910 c10 -11 20 -20 23 -20 3 0 -3 9 -13 20 -10 11 -20 20 -23
20 -3 0 3 -9 13 -20z"/>
<path d="M6312 3855 c0 -16 2 -22 5 -12 2 9 2 23 0 30 -3 6 -5 -1 -5 -18z"/>
<path d="M6559 3864 c-23 -27 -89 -143 -89 -156 0 -17 58 51 86 101 28 51 30
86 3 55z"/>
<path d="M1372 3767 c-31 -44 -72 -129 -72 -148 0 -17 17 -9 28 14 7 12 16 29
21 37 26 42 62 123 58 133 -2 6 -18 -10 -35 -36z"/>
<path d="M4861 3784 c0 -11 3 -14 6 -6 3 7 2 16 -1 19 -3 4 -6 -2 -5 -13z"/>
<path d="M4860 3690 c-11 -11 -20 -25 -20 -32 0 -6 1 -9 3 -7 1 2 13 16 26 32
28 31 21 37 -9 7z"/>
<path d="M5407 3699 c7 -7 15 -10 18 -7 3 3 -2 9 -12 12 -14 6 -15 5 -6 -5z"/>
<path d="M5328 3678 c-13 -13 -17 -18 -8 -11 8 7 27 16 40 22 17 6 19 10 8 10
-9 1 -27 -9 -40 -21z"/>
<path d="M5628 3693 c6 -2 18 -2 25 0 6 3 1 5 -13 5 -14 0 -19 -2 -12 -5z"/>
<path d="M6063 3673 c9 -2 25 -2 35 0 9 3 1 5 -18 5 -19 0 -27 -2 -17 -5z"/>
<path d="M5135 3662 c-3 -3 4 -11 16 -18 l22 -12 -21 -6 c-28 -9 -29 -26 -2
-26 11 0 20 -4 20 -9 0 -5 -9 -13 -20 -16 -11 -3 -20 -11 -20 -16 0 -14 16
-11 41 10 19 15 21 22 11 33 -8 10 -8 18 -1 25 6 6 9 16 5 21 -7 12 -43 22
-51 14z"/>
<path d="M5550 3655 c-7 -9 -11 -17 -9 -20 3 -2 10 5 17 15 14 24 10 26 -8 5z"/>
<path d="M4920 3649 c-11 -8 -12 -12 -2 -16 14 -6 16 -43 2 -43 -5 0 -10 -4
-10 -10 0 -5 10 -10 23 -10 20 0 22 4 19 45 -4 47 -8 51 -32 34z"/>
<path d="M5371 3634 c-24 -31 -25 -33 -11 -69 15 -40 54 -31 58 13 2 24 -1 32
-13 32 -12 0 -14 -6 -9 -26 5 -20 3 -25 -7 -22 -22 7 -22 42 1 63 11 10 20 22
20 27 0 16 -19 8 -39 -18z"/>
<path d="M4812 3620 c0 -19 2 -27 5 -17 2 9 2 25 0 35 -3 9 -5 1 -5 -18z"/>
<path d="M5570 3619 c-11 -8 -12 -12 -2 -16 14 -6 16 -43 2 -43 -5 0 -10 -4
-10 -10 0 -5 15 -10 33 -9 17 0 26 3 20 6 -8 2 -13 22 -13 44 0 41 -5 46 -30
28z"/>
<path d="M5644 3616 c-3 -8 -4 -27 -2 -43 2 -22 9 -29 31 -31 15 -2 27 0 27 5
0 4 3 18 6 31 4 12 2 22 -4 22 -5 0 -13 -11 -16 -25 -8 -31 -26 -23 -26 11 0
19 5 24 25 24 14 0 25 5 25 10 0 16 -60 12 -66 -4z"/>
<path d="M6020 3611 c0 -6 7 -11 15 -11 22 0 18 -18 -6 -25 -28 -9 -20 -37 14
-46 20 -5 27 -4 27 7 0 8 -10 14 -22 15 l-23 0 23 11 c30 15 26 52 -5 56 -13
2 -23 -1 -23 -7z"/>
<path d="M6110 3609 c-11 -8 -12 -12 -2 -16 14 -6 16 -43 2 -43 -21 0 -9 -18
15 -22 25 -5 32 2 18 16 -4 4 -6 23 -4 42 3 36 -4 41 -29 23z"/>
<path d="M1990 3590 c41 -5 113 -11 160 -14 l85 -5 -105 14 c-58 7 -130 13
-160 13 -51 -1 -50 -2 20 -8z"/>
<path d="M1582 3570 c0 -14 2 -19 5 -12 2 6 2 18 0 25 -3 6 -5 1 -5 -13z"/>
<path d="M2402 3529 c-85 -9 -137 -33 -162 -73 -12 -19 -9 -19 106 -10 66 5
183 8 262 8 131 -1 142 0 142 17 0 10 5 21 11 25 8 4 7 9 -2 15 -8 5 -9 9 -3
9 19 0 22 -11 12 -47 -5 -19 -7 -42 -3 -51 5 -13 8 -14 19 -1 8 8 21 31 29 51
13 32 14 36 1 31 -8 -3 -24 3 -35 13 -18 16 -40 19 -158 21 -75 0 -173 -3
-219 -8z"/>
<path d="M4980 3530 c-9 -6 -10 -10 -3 -10 6 0 15 5 18 10 8 12 4 12 -15 0z"/>
<path d="M5547 3523 c5 -13 52 -38 58 -31 2 2 -12 13 -31 25 -23 15 -31 17
-27 6z"/>
<path d="M1983 3378 c-4 -7 -10 -40 -13 -73 l-6 -60 -16 38 c-19 41 -48 51
-47 15 0 -13 12 -48 27 -78 24 -48 31 -55 57 -55 26 0 34 7 57 50 14 28 27 65
27 83 1 30 -1 32 -19 22 -16 -8 -20 -8 -20 4 0 21 -21 66 -31 66 -4 0 -11 -6
-16 -12z"/>
<path d="M2252 3378 c-6 -8 -13 -38 -16 -67 -3 -29 -7 -55 -10 -58 -3 -3 -11
11 -19 30 -18 41 -35 54 -43 32 -7 -17 29 -110 54 -137 34 -39 68 -16 101 69
24 62 20 94 -10 67 -18 -16 -19 -16 -19 13 0 16 -6 37 -13 47 -11 15 -15 16
-25 4z"/>
<path d="M2512 3377 c-6 -7 -12 -38 -14 -70 -1 -31 -5 -57 -8 -57 -3 0 -12 15
-18 34 -16 45 -42 56 -42 18 1 -43 51 -136 76 -140 24 -3 64 39 64 67 0 9 7
25 15 35 8 11 15 28 15 38 0 30 -30 20 -45 -14 -13 -32 -14 -32 -8 22 4 42 2
59 -10 68 -11 10 -17 10 -25 -1z"/>
<path d="M2860 3325 c0 -8 8 -15 18 -15 38 0 44 -14 23 -61 -12 -24 -21 -54
-21 -66 0 -35 27 -27 36 9 3 18 16 53 28 76 21 43 21 44 2 58 -27 19 -86 19
-86 -1z"/>
<path d="M6012 3316 c-23 -8 -54 -22 -68 -31 -21 -14 -42 -16 -108 -12 -44 2
-92 8 -106 12 -31 10 -293 14 -377 6 -34 -4 -110 -3 -170 2 -103 8 -153 1
-153 -21 0 -4 42 -9 92 -11 51 -1 95 -4 97 -7 3 -2 8 -50 12 -107 4 -56 9
-109 9 -117 1 -8 11 37 22 100 10 63 21 117 24 120 3 2 83 6 177 8 207 3 280
-9 285 -48 1 -14 5 -36 9 -50 5 -22 7 -20 17 20 11 45 11 45 57 48 l47 3 -26
-53 c-32 -66 -38 -147 -15 -205 8 -24 19 -43 23 -43 4 0 12 -11 18 -24 11 -26
93 -76 124 -76 10 0 22 -8 25 -17 5 -13 -7 -340 -20 -543 -2 -22 3 -25 33 -28
l35 -3 3 58 c1 32 7 128 12 213 6 85 10 189 10 231 l0 76 56 19 c97 33 156
111 168 219 8 81 -5 128 -51 179 -68 78 -172 111 -261 82z m135 -21 c67 -20
106 -51 100 -81 -2 -13 0 -21 7 -18 21 7 50 -49 54 -106 10 -140 -100 -255
-238 -248 -52 3 -55 4 -52 28 l2 25 -13 -23 -13 -23 -40 29 c-67 49 -92 81
-104 132 -22 93 4 167 86 239 66 58 126 71 211 46z"/>
<path d="M6027 3183 c-39 -6 -50 -41 -41 -132 9 -95 20 -107 96 -103 65 4 66
6 75 99 5 50 3 63 -8 63 -27 0 -38 -16 -46 -65 -6 -37 -13 -51 -27 -53 -27 -5
-36 15 -36 79 0 63 7 69 83 69 33 0 37 3 37 25 0 24 -3 25 -52 24 -29 -1 -66
-4 -81 -6z"/>
<path d="M2660 3300 c0 -5 22 -10 49 -10 28 0 53 5 56 10 4 6 -15 10 -49 10
-31 0 -56 -4 -56 -10z"/>
<path d="M2667 3253 c-17 -16 -4 -23 42 -23 34 0 51 4 55 15 4 12 -4 15 -43
15 -26 0 -51 -3 -54 -7z"/>
<path d="M3050 3101 c0 -5 9 -7 20 -4 11 3 20 7 20 9 0 2 -9 4 -20 4 -11 0
-20 -4 -20 -9z"/>
<path d="M5363 3005 c0 -44 2 -61 4 -37 2 23 2 59 0 80 -2 20 -4 1 -4 -43z"/>
<path d="M2398 3043 c6 -2 18 -2 25 0 6 3 1 5 -13 5 -14 0 -19 -2 -12 -5z"/>
<path d="M5110 2971 c-5 -11 -10 -39 -10 -63 0 -24 -6 -50 -12 -58 -7 -8 -3
-6 8 3 17 14 23 15 27 5 3 -7 6 20 6 60 1 39 -1 72 -4 72 -2 0 -9 -9 -15 -19z"/>
<path d="M5347 2885 c-4 -22 -6 -56 -6 -75 1 -25 4 -18 10 25 10 68 7 111 -4
50z"/>
<path d="M4870 2825 c0 -8 -9 -15 -20 -15 -13 0 -20 -7 -20 -20 0 -13 7 -20
20 -20 17 0 20 -7 20 -45 0 -39 -3 -45 -21 -45 -14 0 -19 -5 -17 -17 2 -14 15
-19 61 -21 52 -3 57 -1 57 18 0 12 -7 20 -18 20 -15 0 -17 9 -14 80 l4 80 -26
0 c-16 0 -26 -6 -26 -15z"/>
<path d="M5095 2810 c3 -5 8 -10 11 -10 2 0 4 5 4 10 0 6 -5 10 -11 10 -5 0
-7 -4 -4 -10z"/>
<path d="M3005 2640 c-3 -5 -1 -10 4 -10 6 0 11 5 11 10 0 6 -2 10 -4 10 -3 0
-8 -4 -11 -10z"/>
<path d="M5103 2615 c0 -22 2 -30 4 -17 2 12 2 30 0 40 -3 9 -5 -1 -4 -23z"/>
<path d="M2723 2633 c26 -2 68 -2 95 0 26 2 4 3 -48 3 -52 0 -74 -1 -47 -3z"/>
<path d="M3062 2622 c-20 -13 -32 -70 -21 -100 11 -30 97 -122 114 -122 5 0
36 23 67 51 66 58 82 101 54 144 -18 27 -61 34 -97 15 -15 -8 -23 -7 -35 5
-16 16 -61 20 -82 7z"/>
<path d="M4848 2513 c6 -2 18 -2 25 0 6 3 1 5 -13 5 -14 0 -19 -2 -12 -5z"/>
<path d="M4955 2515 c23 -8 85 -10 85 -3 0 4 -21 8 -47 7 -27 0 -43 -2 -38 -4z"/>
<path d="M5018 2483 c7 -3 16 -2 19 1 4 3 -2 6 -13 5 -11 0 -14 -3 -6 -6z"/>
<path d="M4938 2473 c6 -2 18 -2 25 0 6 3 1 5 -13 5 -14 0 -19 -2 -12 -5z"/>
<path d="M4948 2373 c-2 -38 -1 -75 4 -83 4 -8 8 22 8 68 0 45 -2 82 -4 82 -2
0 -6 -30 -8 -67z"/>
<path d="M3212 2367 c-38 -40 -21 -104 25 -95 28 5 30 56 3 66 -20 7 -20 9 -6
21 17 14 21 31 8 31 -5 0 -18 -10 -30 -23z m28 -63 c0 -8 -4 -14 -10 -14 -5 0
-10 9 -10 21 0 11 5 17 10 14 6 -3 10 -13 10 -21z"/>
<path d="M3045 2363 c-14 -11 -16 -17 -7 -20 14 -6 16 -43 2 -43 -5 0 -10 -4
-10 -10 0 -5 14 -10 31 -10 27 0 30 2 19 15 -7 9 -10 27 -7 45 8 36 -2 43 -28
23z"/>
<path d="M5793 2315 c0 -33 2 -45 4 -27 2 18 2 45 0 60 -2 15 -4 0 -4 -33z"/>
<path d="M3373 2315 c0 -22 2 -30 4 -17 2 12 2 30 0 40 -3 9 -5 -1 -4 -23z"/>
<path d="M3110 2331 c0 -5 10 -11 23 -15 33 -9 37 -8 37 9 0 10 -10 15 -30 15
-16 0 -30 -4 -30 -9z"/>
<path d="M6626 2288 c-10 -24 -20 -69 -23 -101 l-6 -58 -26 26 c-43 40 -45 29
-5 -19 48 -58 72 -65 78 -22 11 71 16 216 8 216 -5 0 -17 -19 -26 -42z"/>
<path d="M4764 2246 c-20 -15 -22 -50 -14 -346 3 -133 16 -160 76 -158 18 1
40 -4 48 -11 20 -16 242 -17 264 0 1 1 7 2 13 3 11 1 26 28 28 49 2 14 -42 7
-55 -10 -7 -10 -14 -13 -14 -7 0 7 -33 14 -81 19 -81 7 -82 6 -106 -22 l-24
-28 15 31 c14 29 14 33 0 45 -12 10 -21 6 -51 -22 -26 -25 -32 -28 -24 -12 6
12 15 25 21 28 14 9 0 35 -19 35 -11 0 -12 3 -4 8 18 11 5 80 -16 85 -14 4
-14 5 2 6 15 1 17 12 17 86 0 69 -3 86 -17 95 -16 10 -15 10 4 5 17 -5 22 -1
25 17 2 18 10 24 38 26 97 7 122 13 115 30 -4 12 0 11 17 -5 19 -18 38 -23 96
-25 39 -2 72 -7 73 -13 0 -5 7 4 14 20 12 26 14 27 15 8 0 -22 0 -22 163 -16
89 3 217 5 285 3 104 -2 122 0 122 13 0 9 5 19 11 22 6 5 9 -5 7 -27 -4 -48
13 -48 40 0 22 39 22 42 5 43 -46 2 -85 18 -47 20 15 1 13 3 -6 9 -62 20 -437
1 -451 -22 -4 -6 -20 -7 -39 -3 -24 5 -29 10 -19 16 24 15 -84 10 -111 -5 -21
-12 -29 -12 -62 5 -32 16 -59 19 -186 19 -112 0 -153 -3 -168 -14z m531 -56
c-20 -23 -29 -21 -19 4 3 9 13 16 22 16 13 0 12 -3 -3 -20z"/>
<path d="M1241 2234 c0 -11 3 -14 6 -6 3 7 2 16 -1 19 -3 4 -6 -2 -5 -13z"/>
<path d="M2967 2233 c-4 -3 -7 -12 -7 -20 0 -9 17 -13 63 -12 34 0 56 3 50 6
-7 2 -13 11 -13 19 0 10 -13 14 -43 14 -24 0 -47 -3 -50 -7z"/>
<path d="M3083 2233 c9 -2 23 -2 30 0 6 3 -1 5 -18 5 -16 0 -22 -2 -12 -5z"/>
<path d="M3200 2223 c0 -9 98 -8 107 1 4 3 -19 6 -50 6 -31 0 -57 -3 -57 -7z"/>
<path d="M6201 2194 c0 -11 3 -14 6 -6 3 7 2 16 -1 19 -3 4 -6 -2 -5 -13z"/>
<path d="M1940 2179 c-29 -7 -26 -7 20 -5 30 2 95 -2 145 -10 49 -7 91 -11 93
-9 2 2 -11 6 -29 9 -19 3 -61 10 -93 16 -66 11 -85 11 -136 -1z"/>
<path d="M3105 2117 c0 -54 4 -78 16 -89 12 -13 16 -41 18 -134 1 -65 3 -120
6 -122 2 -2 4 77 4 176 0 231 0 230 59 235 33 2 25 4 -28 5 l-75 2 0 -73z"/>
<path d="M1275 2055 c0 -82 2 -92 9 -58 5 24 5 66 -1 100 -8 56 -9 54 -8 -42z"/>
<path d="M5170 2080 c-34 -34 -23 -86 30 -139 18 -17 45 -38 62 -47 28 -14 32
-14 73 10 77 46 113 122 81 171 -22 33 -76 35 -106 3 -19 -20 -19 -23 -3 -40
15 -16 15 -21 3 -28 -8 -5 -14 -21 -15 -36 0 -15 -7 -29 -15 -32 -13 -5 -13
-3 -1 11 10 13 11 20 2 31 -10 11 -8 17 6 25 17 11 17 12 -1 26 -10 8 -16 20
-13 28 15 38 -68 52 -103 17z"/>
<path d="M2589 2086 c-2 -2 -59 -6 -127 -10 -133 -6 -159 -15 -207 -66 l-30
-33 105 9 c58 5 176 9 263 9 142 -1 157 1 157 17 0 9 5 20 11 24 8 5 9 -6 4
-36 -6 -33 -4 -41 6 -38 20 6 65 90 48 88 -29 -4 -50 0 -44 10 3 6 -2 10 -13
10 -10 0 -22 3 -25 6 -7 7 -141 16 -148 10z"/>
<path d="M5720 2045 c0 -10 10 -15 30 -15 35 0 35 0 11 -48 -28 -57 -34 -89
-16 -96 16 -6 18 -4 34 54 5 19 15 50 23 68 11 28 11 34 -2 42 -25 16 -80 12
-80 -5z"/>
<path d="M5520 2025 c0 -11 12 -15 50 -15 38 0 50 4 50 15 0 11 -12 15 -50 15
-38 0 -50 -4 -50 -15z"/>
<path d="M6207 1996 c-4 -10 -5 -21 -2 -24 9 -9 17 6 13 25 -3 17 -4 17 -11
-1z"/>
<path d="M5520 1964 c0 -12 10 -14 47 -12 66 4 70 28 4 28 -39 0 -51 -4 -51
-16z"/>
<path d="M2288 1939 c-19 -10 -23 -51 -12 -106 6 -29 7 -29 54 -23 27 3 56 12
65 20 21 17 16 60 -10 74 -11 6 -26 19 -33 29 -15 19 -38 21 -64 6z"/>
<path d="M3232 1880 c0 -14 2 -19 5 -12 2 6 2 18 0 25 -3 6 -5 1 -5 -13z"/>
<path d="M2168 1869 c-16 -11 -28 -27 -28 -34 0 -20 40 -45 71 -45 24 0 28 5
34 40 4 21 4 44 0 50 -10 16 -48 11 -77 -11z"/>
<path d="M2690 1878 c0 -9 13 -18 30 -21 l29 -6 -18 -43 c-30 -69 -35 -100
-16 -96 16 3 50 82 62 141 4 20 1 27 -10 27 -8 0 -29 3 -46 6 -24 5 -31 3 -31
-8z"/>
<path d="M2490 1844 c0 -12 10 -14 47 -12 66 4 70 28 4 28 -39 0 -51 -4 -51
-16z"/>
<path d="M6086 1815 c-7 -19 3 -19 28 0 19 15 19 15 -1 15 -11 0 -23 -7 -27
-15z"/>
<path d="M2490 1795 c0 -11 12 -15 50 -15 38 0 50 4 50 15 0 11 -12 15 -50 15
-38 0 -50 -4 -50 -15z"/>
<path d="M5598 1793 c6 -2 18 -2 25 0 6 3 1 5 -13 5 -14 0 -19 -2 -12 -5z"/>
<path d="M5192 1770 c-18 -29 -15 -42 7 -35 11 3 22 2 25 -3 3 -5 18 -7 32 -4
16 3 25 1 21 -5 -4 -6 13 -6 46 0 77 14 86 18 57 27 -22 7 -20 8 13 9 22 1 36
5 32 11 -3 5 24 11 67 13 40 1 -8 4 -107 5 -170 2 -181 1 -193 -18z"/>
<path d="M2250 1767 c-37 -19 -37 -43 2 -67 18 -11 36 -20 39 -20 3 0 13 16
22 36 27 56 -4 81 -63 51z"/>
<path d="M1212 1680 c0 -19 2 -27 5 -17 2 9 2 25 0 35 -3 9 -5 1 -5 -18z"/>
<path d="M3050 1644 c-13 -15 -6 -17 24 -5 17 6 17 8 3 14 -8 3 -21 -1 -27 -9z"/>
<path d="M1202 1600 c0 -14 2 -19 5 -12 2 6 2 18 0 25 -3 6 -5 1 -5 -13z"/>
<path d="M2153 1602 c-17 -28 -1 -44 45 -45 22 -1 38 -6 35 -11 -3 -5 8 -6 26
-2 17 3 45 9 61 12 33 7 39 20 13 28 -10 3 11 4 47 1 42 -2 54 -1 35 4 -29 7
-29 8 15 14 25 4 56 8 70 11 14 2 -56 4 -155 5 -165 1 -181 -1 -192 -17z"/>
<path d="M2543 1473 c9 -2 25 -2 35 0 9 3 1 5 -18 5 -19 0 -27 -2 -17 -5z"/>
<path d="M2428 1463 c6 -2 18 -2 25 0 6 3 1 5 -13 5 -14 0 -19 -2 -12 -5z"/>
<path d="M4930 1460 c-115 -5 -123 -15 -10 -13 14 0 64 1 113 2 50 0 87 5 87
11 0 6 -10 9 -22 8 -13 -1 -88 -5 -168 -8z"/>
<path d="M2258 1453 c12 -2 32 -2 45 0 12 2 2 4 -23 4 -25 0 -35 -2 -22 -4z"/>
<path d="M2123 1443 c9 -2 23 -2 30 0 6 3 -1 5 -18 5 -16 0 -22 -2 -12 -5z"/>
</g>
</svg>
